<svg xmlns="http://www.w3.org/2000/svg" width="1920" height="1276" viewBox="0 0 1920 1276" role="img" aria-label="FMEA table diagram">
<rect width="1920" height="1276" fill="#FFFFFF"/>
<g id="fmea-table" font-family="Arial" fill="#062B5F">
<text x="28" y="54" font-size="34" font-weight="700">Stress FMEA: Dense Optical Module Risk Review</text>
<text x="28" y="96" font-size="17" fill="#536781">Goal: Verify that dense FMEA content extends the SVG height while preserving readable table typography.</text>
<g id="fmea-rating-scale" class="fmea-panel"><rect x="1048" y="22" width="844" height="96" rx="10" fill="#F7FAFF" stroke="#8DA9CC" stroke-width="1.5"/>
<text x="1066" y="50" font-size="17" font-weight="700">Rating Scale (1-10)</text>
<circle cx="1080.0" cy="77" r="13" fill="#D12B2B"/>
<text x="1080.0" y="82" font-size="13" font-weight="700" text-anchor="middle" fill="#FFFFFF">S</text>
<text x="1102.0" y="73" font-size="13" font-weight="700">Severity</text>
<text x="1102.0" y="92" font-size="11.5" fill="#062B5F">Customer / product impact</text>
<text x="1102.0" y="110" font-size="11.5" fill="#536781">1 = low / easy, 10 = high</text>
<line x1="1325.3" y1="62" x2="1325.3" y2="106" stroke="#C6D5EA" stroke-width="1.2"/>
<circle cx="1349.3" cy="77" r="13" fill="#D79200"/>
<text x="1349.3" y="82" font-size="13" font-weight="700" text-anchor="middle" fill="#FFFFFF">O</text>
<text x="1371.3" y="73" font-size="13" font-weight="700">Occurrence</text>
<text x="1371.3" y="92" font-size="11.5" fill="#062B5F">Failure likelihood</text>
<text x="1371.3" y="110" font-size="11.5" fill="#536781">1 = low / easy, 10 = high</text>
<line x1="1594.7" y1="62" x2="1594.7" y2="106" stroke="#C6D5EA" stroke-width="1.2"/>
<circle cx="1618.7" cy="77" r="13" fill="#2F8C46"/>
<text x="1618.7" y="82" font-size="13" font-weight="700" text-anchor="middle" fill="#FFFFFF">D</text>
<text x="1640.7" y="73" font-size="13" font-weight="700">Detection</text>
<text x="1640.7" y="92" font-size="11.5" fill="#062B5F">Detection difficulty</text>
<text x="1640.7" y="110" font-size="11.5" fill="#536781">1 = low / easy, 10 = high</text>
</g>
<g id="fmea-main-table" class="fmea-main-table">
<rect x="16" y="154" width="1888" height="942" fill="#FFFFFF" stroke="#C6D5EA" stroke-width="1.4"/>
<rect x="16" y="154" width="1888" height="62" fill="#103A70"/>
<text x="24.0" y="178.0" font-size="12" font-weight="700" fill="#FFFFFF" text-anchor="start">Item / Function</text>
<text x="174.0" y="178.0" font-size="12" font-weight="700" fill="#FFFFFF" text-anchor="start">Potential Failure Mode</text>
<text x="329.0" y="178.0" font-size="12" font-weight="700" fill="#FFFFFF" text-anchor="start">Effects</text>
<text x="509.0" y="178.0" font-size="12" font-weight="700" fill="#FFFFFF" text-anchor="start">Causes</text>
<text x="744.0" y="178.0" font-size="12" font-weight="700" fill="#FFFFFF" text-anchor="start">Prevention Controls</text>
<text x="954.0" y="178.0" font-size="12" font-weight="700" fill="#FFFFFF" text-anchor="start">Detection Controls</text>
<text x="1173.5" y="178.0" font-size="12" font-weight="700" fill="#FFFFFF" text-anchor="middle">S</text>
<text x="1228.5" y="178.0" font-size="12" font-weight="700" fill="#FFFFFF" text-anchor="middle">O</text>
<text x="1283.5" y="178.0" font-size="12" font-weight="700" fill="#FFFFFF" text-anchor="middle">D</text>
<text x="1346.0" y="178.0" font-size="12" font-weight="700" fill="#FFFFFF" text-anchor="middle">RPN</text>
<text x="1389.0" y="178.0" font-size="12" font-weight="700" fill="#FFFFFF" text-anchor="start">Recommended Actions</text>
<text x="1643.5" y="178.0" font-size="12" font-weight="700" fill="#FFFFFF" text-anchor="middle">Owner</text>
<text x="1738.5" y="178.0" font-size="12" font-weight="700" fill="#FFFFFF" text-anchor="middle">Target</text>
<text x="1847.5" y="178.0" font-size="12" font-weight="700" fill="#FFFFFF" text-anchor="middle">Status</text>
<rect x="16" y="216" width="1888" height="98" fill="#FFFFFF"/>
<rect x="26" y="234" width="4" height="62" rx="2" fill="#155CB4"/>
<text x="40" y="250" font-size="12" fill="#536781" font-weight="700">S1</text>
<text x="40" y="272" font-size="13" fill="#062B5F" font-weight="700">Optical alignment</text>
<text x="176.0" y="234.0" font-size="12.5" fill="#062B5F">Coupling</text>
<text x="176.0" y="250.0" font-size="12.5" fill="#062B5F">efficiency below</text>
<text x="176.0" y="266.0" font-size="12.5" fill="#062B5F">target</text>
<circle cx="334" cy="230" r="2.4" fill="#0B3A78"/>
<text x="343.0" y="234.0" font-size="12.5" fill="#062B5F">Low output power</text>
<circle cx="334" cy="249" r="2.4" fill="#0B3A78"/>
<text x="343.0" y="253.0" font-size="12.5" fill="#062B5F">Yield loss</text>
<circle cx="514" cy="230" r="2.4" fill="#0B3A78"/>
<text x="523.0" y="234.0" font-size="12.5" fill="#062B5F">Fixture repeatability drift</text>
<circle cx="514" cy="249" r="2.4" fill="#0B3A78"/>
<text x="523.0" y="253.0" font-size="12.5" fill="#062B5F">Adhesive shrinkage</text>
<circle cx="749" cy="230" r="2.4" fill="#0B3A78"/>
<text x="758.0" y="234.0" font-size="12.5" fill="#062B5F">Daily fixture check</text>
<circle cx="749" cy="249" r="2.4" fill="#0B3A78"/>
<text x="758.0" y="253.0" font-size="12.5" fill="#062B5F">Qualified adhesive profile</text>
<circle cx="959" cy="230" r="2.4" fill="#0B3A78"/>
<text x="968.0" y="234.0" font-size="12.5" fill="#062B5F">Coupling efficiency check</text>
<circle cx="959" cy="249" r="2.4" fill="#0B3A78"/>
<text x="968.0" y="253.0" font-size="12.5" fill="#062B5F">Final optical power test</text>
<text class="fmea-score-cell" data-score="8" x="1173.5" y="271.0" font-size="16" font-weight="700" text-anchor="middle" fill="#D12B2B">8</text>
<text class="fmea-score-cell" data-score="5" x="1228.5" y="271.0" font-size="16" font-weight="700" text-anchor="middle" fill="#D79200">5</text>
<text class="fmea-score-cell" data-score="5" x="1283.5" y="271.0" font-size="16" font-weight="700" text-anchor="middle" fill="#D79200">5</text>
<rect class="fmea-risk-cell" data-risk-level="high" data-rpn="200" x="1311" y="216" width="70" height="98" fill="#FCE8E8" opacity="0.82"/>
<text x="1346.0" y="271.0" font-size="16" font-weight="700" text-anchor="middle" fill="#D12B2B">200</text>
<circle cx="1394" cy="230" r="2.4" fill="#0B3A78"/>
<text x="1403.0" y="234.0" font-size="12.5" fill="#062B5F">Run GRR</text>
<circle cx="1394" cy="249" r="2.4" fill="#0B3A78"/>
<text x="1403.0" y="253.0" font-size="12.5" fill="#062B5F">Track coupling shift</text>
<text x="1643.5" y="269.0" font-size="12.5" font-weight="500" fill="#062B5F" text-anchor="middle">PE</text>
<text x="1738.5" y="269.0" font-size="12.5" font-weight="500" fill="#062B5F" text-anchor="middle">2026-06-10</text>
<g class="fmea-status-badge" data-status="Open">
<circle cx="1847.5" cy="247.0" r="13" fill="#2B6CBF"/>
<rect x="1841.5" y="242.0" width="12" height="11" rx="2" fill="none" stroke="#FFFFFF" stroke-width="2"/>
<line x1="1841.5" y1="246.0" x2="1853.5" y2="246.0" stroke="#FFFFFF" stroke-width="2"/>
<line x1="1844.5" y1="239.0" x2="1844.5" y2="243.0" stroke="#FFFFFF" stroke-width="2" stroke-linecap="round"/>
<line x1="1850.5" y1="239.0" x2="1850.5" y2="243.0" stroke="#FFFFFF" stroke-width="2" stroke-linecap="round"/>
<text x="1847.5" y="281.0" font-size="11.5" font-weight="700" fill="#062B5F" text-anchor="middle">Open</text>
</g>
<rect x="16" y="314" width="1888" height="98" fill="#F4F8FD"/>
<rect x="26" y="332" width="4" height="62" rx="2" fill="#245C9A"/>
<text x="40" y="348" font-size="12" fill="#536781" font-weight="700">S2</text>
<text x="40" y="370" font-size="13" fill="#062B5F" font-weight="700">Laser drive setup</text>
<text x="176.0" y="332.0" font-size="12.5" fill="#062B5F">Incorrect drive</text>
<text x="176.0" y="348.0" font-size="12.5" fill="#062B5F">current limit</text>
<circle cx="334" cy="328" r="2.4" fill="#0B3A78"/>
<text x="343.0" y="332.0" font-size="12.5" fill="#062B5F">Power instability</text>
<circle cx="334" cy="347" r="2.4" fill="#0B3A78"/>
<text x="343.0" y="351.0" font-size="12.5" fill="#062B5F">Reliability stress</text>
<circle cx="514" cy="328" r="2.4" fill="#0B3A78"/>
<text x="523.0" y="332.0" font-size="12.5" fill="#062B5F">Wrong firmware setting</text>
<circle cx="514" cy="347" r="2.4" fill="#0B3A78"/>
<text x="523.0" y="351.0" font-size="12.5" fill="#062B5F">Outdated work instruction</text>
<circle cx="749" cy="328" r="2.4" fill="#0B3A78"/>
<text x="758.0" y="332.0" font-size="12.5" fill="#062B5F">Firmware lock</text>
<circle cx="749" cy="347" r="2.4" fill="#0B3A78"/>
<text x="758.0" y="351.0" font-size="12.5" fill="#062B5F">Released work instruction</text>
<circle cx="959" cy="328" r="2.4" fill="#0B3A78"/>
<text x="968.0" y="332.0" font-size="12.5" fill="#062B5F">ATE log review</text>
<circle cx="959" cy="347" r="2.4" fill="#0B3A78"/>
<text x="968.0" y="351.0" font-size="12.5" fill="#062B5F">Operator checklist</text>
<text class="fmea-score-cell" data-score="7" x="1173.5" y="369.0" font-size="16" font-weight="700" text-anchor="middle" fill="#D12B2B">7</text>
<text class="fmea-score-cell" data-score="4" x="1228.5" y="369.0" font-size="16" font-weight="700" text-anchor="middle" fill="#D79200">4</text>
<text class="fmea-score-cell" data-score="4" x="1283.5" y="369.0" font-size="16" font-weight="700" text-anchor="middle" fill="#D79200">4</text>
<rect class="fmea-risk-cell" data-risk-level="medium" data-rpn="112" x="1311" y="314" width="70" height="98" fill="#FFF2D6" opacity="0.82"/>
<text x="1346.0" y="369.0" font-size="16" font-weight="700" text-anchor="middle" fill="#D79200">112</text>
<circle cx="1394" cy="328" r="2.4" fill="#0B3A78"/>
<text x="1403.0" y="332.0" font-size="12.5" fill="#062B5F">Add first-article audit</text>
<circle cx="1394" cy="347" r="2.4" fill="#0B3A78"/>
<text x="1403.0" y="351.0" font-size="12.5" fill="#062B5F">Lock firmware version</text>
<text x="1643.5" y="367.0" font-size="12.5" font-weight="500" fill="#062B5F" text-anchor="middle">TE</text>
<text x="1738.5" y="367.0" font-size="12.5" font-weight="500" fill="#062B5F" text-anchor="middle">2026-06-05</text>
<g class="fmea-status-badge" data-status="In Progress">
<circle cx="1847.5" cy="345.0" r="13" fill="#D79200"/>
<circle cx="1847.5" cy="345.0" r="6.5" fill="none" stroke="#FFFFFF" stroke-width="2.5" stroke-dasharray="24 16" stroke-linecap="round"/>
<circle cx="1852.5" cy="340.0" r="2.5" fill="#FFFFFF"/>
<text x="1847.5" y="379.0" font-size="11.5" font-weight="700" fill="#062B5F" text-anchor="middle">In Progress</text>
</g>
<rect x="16" y="412" width="1888" height="130" fill="#FFFFFF"/>
<rect x="26" y="430" width="4" height="76" rx="2" fill="#6E49C9"/>
<text x="40" y="446" font-size="12" fill="#536781" font-weight="700">S3</text>
<text x="40" y="468" font-size="13" fill="#062B5F" font-weight="700">Thermal interface</text>
<text x="176.0" y="430.0" font-size="12.5" fill="#062B5F">Poor thermal</text>
<text x="176.0" y="446.0" font-size="12.5" fill="#062B5F">contact</text>
<circle cx="334" cy="426" r="2.4" fill="#0B3A78"/>
<text x="343.0" y="430.0" font-size="12.5" fill="#062B5F">High device</text>
<text x="343.0" y="446.0" font-size="12.5" fill="#062B5F">temperature</text>
<circle cx="334" cy="461" r="2.4" fill="#0B3A78"/>
<text x="343.0" y="465.0" font-size="12.5" fill="#062B5F">Reliability margin</text>
<text x="343.0" y="481.0" font-size="12.5" fill="#062B5F">loss</text>
<circle cx="514" cy="426" r="2.4" fill="#0B3A78"/>
<text x="523.0" y="430.0" font-size="12.5" fill="#062B5F">Uneven TIM thickness</text>
<circle cx="514" cy="445" r="2.4" fill="#0B3A78"/>
<text x="523.0" y="449.0" font-size="12.5" fill="#062B5F">Clamp force variation</text>
<circle cx="749" cy="426" r="2.4" fill="#0B3A78"/>
<text x="758.0" y="430.0" font-size="12.5" fill="#062B5F">Torque-controlled assembly</text>
<circle cx="749" cy="445" r="2.4" fill="#0B3A78"/>
<text x="758.0" y="449.0" font-size="12.5" fill="#062B5F">TIM thickness spec</text>
<circle cx="959" cy="426" r="2.4" fill="#0B3A78"/>
<text x="968.0" y="430.0" font-size="12.5" fill="#062B5F">Thermal resistance check</text>
<circle cx="959" cy="445" r="2.4" fill="#0B3A78"/>
<text x="968.0" y="449.0" font-size="12.5" fill="#062B5F">Visual inspection</text>
<text class="fmea-score-cell" data-score="9" x="1173.5" y="483.0" font-size="16" font-weight="700" text-anchor="middle" fill="#D12B2B">9</text>
<text class="fmea-score-cell" data-score="3" x="1228.5" y="483.0" font-size="16" font-weight="700" text-anchor="middle" fill="#2F8C46">3</text>
<text class="fmea-score-cell" data-score="5" x="1283.5" y="483.0" font-size="16" font-weight="700" text-anchor="middle" fill="#D79200">5</text>
<rect class="fmea-risk-cell" data-risk-level="medium" data-rpn="135" x="1311" y="412" width="70" height="130" fill="#FFF2D6" opacity="0.82"/>
<text x="1346.0" y="483.0" font-size="16" font-weight="700" text-anchor="middle" fill="#D79200">135</text>
<circle cx="1394" cy="426" r="2.4" fill="#0B3A78"/>
<text x="1403.0" y="430.0" font-size="12.5" fill="#062B5F">Add thermal gate</text>
<circle cx="1394" cy="445" r="2.4" fill="#0B3A78"/>
<text x="1403.0" y="449.0" font-size="12.5" fill="#062B5F">Review clamp tooling</text>
<text x="1643.5" y="481.0" font-size="12.5" font-weight="500" fill="#062B5F" text-anchor="middle">ME</text>
<text x="1738.5" y="481.0" font-size="12.5" font-weight="500" fill="#062B5F" text-anchor="middle">2026-06-18</text>
<g class="fmea-status-badge" data-status="Open">
<circle cx="1847.5" cy="459.0" r="13" fill="#2B6CBF"/>
<rect x="1841.5" y="454.0" width="12" height="11" rx="2" fill="none" stroke="#FFFFFF" stroke-width="2"/>
<line x1="1841.5" y1="458.0" x2="1853.5" y2="458.0" stroke="#FFFFFF" stroke-width="2"/>
<line x1="1844.5" y1="451.0" x2="1844.5" y2="455.0" stroke="#FFFFFF" stroke-width="2" stroke-linecap="round"/>
<line x1="1850.5" y1="451.0" x2="1850.5" y2="455.0" stroke="#FFFFFF" stroke-width="2" stroke-linecap="round"/>
<text x="1847.5" y="493.0" font-size="11.5" font-weight="700" fill="#062B5F" text-anchor="middle">Open</text>
</g>
<rect x="16" y="542" width="1888" height="114" fill="#F4F8FD"/>
<rect x="26" y="560" width="4" height="76" rx="2" fill="#155CB4"/>
<text x="40" y="576" font-size="12" fill="#536781" font-weight="700">S4</text>
<text x="40" y="598" font-size="13" fill="#062B5F" font-weight="700">Fiber routing</text>
<text x="176.0" y="560.0" font-size="12.5" fill="#062B5F">Fiber stress</text>
<text x="176.0" y="576.0" font-size="12.5" fill="#062B5F">changes alignment</text>
<text x="176.0" y="592.0" font-size="12.5" fill="#062B5F">after cure</text>
<circle cx="334" cy="556" r="2.4" fill="#0B3A78"/>
<text x="343.0" y="560.0" font-size="12.5" fill="#062B5F">Power drift</text>
<circle cx="334" cy="575" r="2.4" fill="#0B3A78"/>
<text x="343.0" y="579.0" font-size="12.5" fill="#062B5F">Intermittent margin</text>
<text x="343.0" y="595.0" font-size="12.5" fill="#062B5F">loss</text>
<circle cx="514" cy="556" r="2.4" fill="#0B3A78"/>
<text x="523.0" y="560.0" font-size="12.5" fill="#062B5F">Routing force not controlled</text>
<circle cx="514" cy="575" r="2.4" fill="#0B3A78"/>
<text x="523.0" y="579.0" font-size="12.5" fill="#062B5F">Bond line movement</text>
<circle cx="749" cy="556" r="2.4" fill="#0B3A78"/>
<text x="758.0" y="560.0" font-size="12.5" fill="#062B5F">Routing guide</text>
<circle cx="749" cy="575" r="2.4" fill="#0B3A78"/>
<text x="758.0" y="579.0" font-size="12.5" fill="#062B5F">Bond line visual limit</text>
<circle cx="959" cy="556" r="2.4" fill="#0B3A78"/>
<text x="968.0" y="560.0" font-size="12.5" fill="#062B5F">Near-field review</text>
<circle cx="959" cy="575" r="2.4" fill="#0B3A78"/>
<text x="968.0" y="579.0" font-size="12.5" fill="#062B5F">Post-cure optical check</text>
<text class="fmea-score-cell" data-score="8" x="1173.5" y="605.0" font-size="16" font-weight="700" text-anchor="middle" fill="#D12B2B">8</text>
<text class="fmea-score-cell" data-score="4" x="1228.5" y="605.0" font-size="16" font-weight="700" text-anchor="middle" fill="#D79200">4</text>
<text class="fmea-score-cell" data-score="6" x="1283.5" y="605.0" font-size="16" font-weight="700" text-anchor="middle" fill="#D79200">6</text>
<rect class="fmea-risk-cell" data-risk-level="medium" data-rpn="192" x="1311" y="542" width="70" height="114" fill="#FFF2D6" opacity="0.82"/>
<text x="1346.0" y="605.0" font-size="16" font-weight="700" text-anchor="middle" fill="#D79200">192</text>
<circle cx="1394" cy="556" r="2.4" fill="#0B3A78"/>
<text x="1403.0" y="560.0" font-size="12.5" fill="#062B5F">Add routing force check</text>
<circle cx="1394" cy="575" r="2.4" fill="#0B3A78"/>
<text x="1403.0" y="579.0" font-size="12.5" fill="#062B5F">Audit fixture clearance</text>
<text x="1643.5" y="603.0" font-size="12.5" font-weight="500" fill="#062B5F" text-anchor="middle">PE</text>
<text x="1738.5" y="603.0" font-size="12.5" font-weight="500" fill="#062B5F" text-anchor="middle">2026-06-22</text>
<g class="fmea-status-badge" data-status="Open">
<circle cx="1847.5" cy="581.0" r="13" fill="#2B6CBF"/>
<rect x="1841.5" y="576.0" width="12" height="11" rx="2" fill="none" stroke="#FFFFFF" stroke-width="2"/>
<line x1="1841.5" y1="580.0" x2="1853.5" y2="580.0" stroke="#FFFFFF" stroke-width="2"/>
<line x1="1844.5" y1="573.0" x2="1844.5" y2="577.0" stroke="#FFFFFF" stroke-width="2" stroke-linecap="round"/>
<line x1="1850.5" y1="573.0" x2="1850.5" y2="577.0" stroke="#FFFFFF" stroke-width="2" stroke-linecap="round"/>
<text x="1847.5" y="615.0" font-size="11.5" font-weight="700" fill="#062B5F" text-anchor="middle">Open</text>
</g>
<rect x="16" y="656" width="1888" height="114" fill="#FFFFFF"/>
<rect x="26" y="674" width="4" height="76" rx="2" fill="#1686A7"/>
<text x="40" y="690" font-size="12" fill="#536781" font-weight="700">S5</text>
<text x="40" y="712" font-size="13" fill="#062B5F" font-weight="700">Firmware</text>
<text x="40" y="729" font-size="13" fill="#062B5F" font-weight="700">compensation</text>
<text x="176.0" y="674.0" font-size="12.5" fill="#062B5F">Compensation log</text>
<text x="176.0" y="690.0" font-size="12.5" fill="#062B5F">misses early</text>
<text x="176.0" y="706.0" font-size="12.5" fill="#062B5F">abnormal drift</text>
<circle cx="334" cy="670" r="2.4" fill="#0B3A78"/>
<text x="343.0" y="674.0" font-size="12.5" fill="#062B5F">Delayed investigation</text>
<circle cx="334" cy="689" r="2.4" fill="#0B3A78"/>
<text x="343.0" y="693.0" font-size="12.5" fill="#062B5F">Ambiguous root cause</text>
<text x="343.0" y="709.0" font-size="12.5" fill="#062B5F">separation</text>
<circle cx="514" cy="670" r="2.4" fill="#0B3A78"/>
<text x="523.0" y="674.0" font-size="12.5" fill="#062B5F">Log interval too long</text>
<circle cx="514" cy="689" r="2.4" fill="#0B3A78"/>
<text x="523.0" y="693.0" font-size="12.5" fill="#062B5F">Boundary case not validated</text>
<circle cx="749" cy="670" r="2.4" fill="#0B3A78"/>
<text x="758.0" y="674.0" font-size="12.5" fill="#062B5F">Firmware checklist</text>
<circle cx="749" cy="689" r="2.4" fill="#0B3A78"/>
<text x="758.0" y="693.0" font-size="12.5" fill="#062B5F">Design review</text>
<circle cx="959" cy="670" r="2.4" fill="#0B3A78"/>
<text x="968.0" y="674.0" font-size="12.5" fill="#062B5F">Log trend review</text>
<circle cx="959" cy="689" r="2.4" fill="#0B3A78"/>
<text x="968.0" y="693.0" font-size="12.5" fill="#062B5F">Independent station</text>
<text x="968.0" y="709.0" font-size="12.5" fill="#062B5F">retest</text>
<text class="fmea-score-cell" data-score="7" x="1173.5" y="719.0" font-size="16" font-weight="700" text-anchor="middle" fill="#D12B2B">7</text>
<text class="fmea-score-cell" data-score="3" x="1228.5" y="719.0" font-size="16" font-weight="700" text-anchor="middle" fill="#2F8C46">3</text>
<text class="fmea-score-cell" data-score="7" x="1283.5" y="719.0" font-size="16" font-weight="700" text-anchor="middle" fill="#D12B2B">7</text>
<rect class="fmea-risk-cell" data-risk-level="medium" data-rpn="147" x="1311" y="656" width="70" height="114" fill="#FFF2D6" opacity="0.82"/>
<text x="1346.0" y="719.0" font-size="16" font-weight="700" text-anchor="middle" fill="#D79200">147</text>
<circle cx="1394" cy="670" r="2.4" fill="#0B3A78"/>
<text x="1403.0" y="674.0" font-size="12.5" fill="#062B5F">Add detailed logs</text>
<circle cx="1394" cy="689" r="2.4" fill="#0B3A78"/>
<text x="1403.0" y="693.0" font-size="12.5" fill="#062B5F">Define compensation alert</text>
<text x="1643.5" y="717.0" font-size="12.5" font-weight="500" fill="#062B5F" text-anchor="middle">FW</text>
<text x="1738.5" y="717.0" font-size="12.5" font-weight="500" fill="#062B5F" text-anchor="middle">2026-06-20</text>
<g class="fmea-status-badge" data-status="In Progress">
<circle cx="1847.5" cy="695.0" r="13" fill="#D79200"/>
<circle cx="1847.5" cy="695.0" r="6.5" fill="none" stroke="#FFFFFF" stroke-width="2.5" stroke-dasharray="24 16" stroke-linecap="round"/>
<circle cx="1852.5" cy="690.0" r="2.5" fill="#FFFFFF"/>
<text x="1847.5" y="729.0" font-size="11.5" font-weight="700" fill="#062B5F" text-anchor="middle">In Progress</text>
</g>
<rect x="16" y="770" width="1888" height="98" fill="#F4F8FD"/>
<rect x="26" y="788" width="4" height="62" rx="2" fill="#2F8C46"/>
<text x="40" y="804" font-size="12" fill="#536781" font-weight="700">S6</text>
<text x="40" y="826" font-size="13" fill="#062B5F" font-weight="700">Inspection</text>
<text x="40" y="843" font-size="13" fill="#062B5F" font-weight="700">criteria</text>
<text x="176.0" y="788.0" font-size="12.5" fill="#062B5F">Inconsistent</text>
<text x="176.0" y="804.0" font-size="12.5" fill="#062B5F">cosmetic and</text>
<text x="176.0" y="820.0" font-size="12.5" fill="#062B5F">optical surface</text>
<circle cx="334" cy="784" r="2.4" fill="#0B3A78"/>
<text x="343.0" y="788.0" font-size="12.5" fill="#062B5F">False escapes</text>
<circle cx="334" cy="803" r="2.4" fill="#0B3A78"/>
<text x="343.0" y="807.0" font-size="12.5" fill="#062B5F">Unnecessary rework</text>
<circle cx="514" cy="784" r="2.4" fill="#0B3A78"/>
<text x="523.0" y="788.0" font-size="12.5" fill="#062B5F">Criteria examples incomplete</text>
<circle cx="514" cy="803" r="2.4" fill="#0B3A78"/>
<text x="523.0" y="807.0" font-size="12.5" fill="#062B5F">Operator training gap</text>
<circle cx="749" cy="784" r="2.4" fill="#0B3A78"/>
<text x="758.0" y="788.0" font-size="12.5" fill="#062B5F">Released criteria</text>
<circle cx="749" cy="803" r="2.4" fill="#0B3A78"/>
<text x="758.0" y="807.0" font-size="12.5" fill="#062B5F">Training record</text>
<circle cx="959" cy="784" r="2.4" fill="#0B3A78"/>
<text x="968.0" y="788.0" font-size="12.5" fill="#062B5F">QA sample audit</text>
<circle cx="959" cy="803" r="2.4" fill="#0B3A78"/>
<text x="968.0" y="807.0" font-size="12.5" fill="#062B5F">Microscope photo review</text>
<text class="fmea-score-cell" data-score="5" x="1173.5" y="825.0" font-size="16" font-weight="700" text-anchor="middle" fill="#D79200">5</text>
<text class="fmea-score-cell" data-score="4" x="1228.5" y="825.0" font-size="16" font-weight="700" text-anchor="middle" fill="#D79200">4</text>
<text class="fmea-score-cell" data-score="4" x="1283.5" y="825.0" font-size="16" font-weight="700" text-anchor="middle" fill="#D79200">4</text>
<rect class="fmea-risk-cell" data-risk-level="low" data-rpn="80" x="1311" y="770" width="70" height="98" fill="#E8F5EA" opacity="0.82"/>
<text x="1346.0" y="825.0" font-size="16" font-weight="700" text-anchor="middle" fill="#2F8C46">80</text>
<circle cx="1394" cy="784" r="2.4" fill="#0B3A78"/>
<text x="1403.0" y="788.0" font-size="12.5" fill="#062B5F">Add photo examples</text>
<circle cx="1394" cy="803" r="2.4" fill="#0B3A78"/>
<text x="1403.0" y="807.0" font-size="12.5" fill="#062B5F">Run shift audit</text>
<text x="1643.5" y="823.0" font-size="12.5" font-weight="500" fill="#062B5F" text-anchor="middle">QA</text>
<text x="1738.5" y="823.0" font-size="12.5" font-weight="500" fill="#062B5F" text-anchor="middle">2026-06-12</text>
<g class="fmea-status-badge" data-status="Open">
<circle cx="1847.5" cy="801.0" r="13" fill="#2B6CBF"/>
<rect x="1841.5" y="796.0" width="12" height="11" rx="2" fill="none" stroke="#FFFFFF" stroke-width="2"/>
<line x1="1841.5" y1="800.0" x2="1853.5" y2="800.0" stroke="#FFFFFF" stroke-width="2"/>
<line x1="1844.5" y1="793.0" x2="1844.5" y2="797.0" stroke="#FFFFFF" stroke-width="2" stroke-linecap="round"/>
<line x1="1850.5" y1="793.0" x2="1850.5" y2="797.0" stroke="#FFFFFF" stroke-width="2" stroke-linecap="round"/>
<text x="1847.5" y="835.0" font-size="11.5" font-weight="700" fill="#062B5F" text-anchor="middle">Open</text>
</g>
<rect x="16" y="868" width="1888" height="98" fill="#FFFFFF"/>
<rect x="26" y="886" width="4" height="62" rx="2" fill="#245C9A"/>
<text x="40" y="902" font-size="12" fill="#536781" font-weight="700">S7</text>
<text x="40" y="924" font-size="13" fill="#062B5F" font-weight="700">Label printing</text>
<text x="176.0" y="886.0" font-size="12.5" fill="#062B5F">Wrong label</text>
<text x="176.0" y="902.0" font-size="12.5" fill="#062B5F">template selected</text>
<text x="331.0" y="886.0" font-size="12.5" fill="#062B5F">Shipment rework</text>
<circle cx="514" cy="882" r="2.4" fill="#0B3A78"/>
<text x="523.0" y="886.0" font-size="12.5" fill="#062B5F">Manual template choice</text>
<circle cx="514" cy="901" r="2.4" fill="#0B3A78"/>
<text x="523.0" y="905.0" font-size="12.5" fill="#062B5F">Outdated local file</text>
<text x="746.0" y="886.0" font-size="12.5" fill="#062B5F">Released template folder</text>
<text x="956.0" y="886.0" font-size="12.5" fill="#062B5F">Final visual inspection</text>
<text class="fmea-score-cell" data-score="3" x="1173.5" y="923.0" font-size="16" font-weight="700" text-anchor="middle" fill="#2F8C46">3</text>
<text class="fmea-score-cell" data-score="2" x="1228.5" y="923.0" font-size="16" font-weight="700" text-anchor="middle" fill="#2F8C46">2</text>
<text class="fmea-score-cell" data-score="4" x="1283.5" y="923.0" font-size="16" font-weight="700" text-anchor="middle" fill="#D79200">4</text>
<rect class="fmea-risk-cell" data-risk-level="low" data-rpn="24" x="1311" y="868" width="70" height="98" fill="#E8F5EA" opacity="0.82"/>
<text x="1346.0" y="923.0" font-size="16" font-weight="700" text-anchor="middle" fill="#2F8C46">24</text>
<text x="1391.0" y="886.0" font-size="12.5" fill="#062B5F">Lock template source</text>
<text x="1643.5" y="921.0" font-size="12.5" font-weight="500" fill="#062B5F" text-anchor="middle">QA</text>
<text x="1738.5" y="921.0" font-size="12.5" font-weight="500" fill="#062B5F" text-anchor="middle">2026-06-02</text>
<g class="fmea-status-badge" data-status="Open">
<circle cx="1847.5" cy="899.0" r="13" fill="#2B6CBF"/>
<rect x="1841.5" y="894.0" width="12" height="11" rx="2" fill="none" stroke="#FFFFFF" stroke-width="2"/>
<line x1="1841.5" y1="898.0" x2="1853.5" y2="898.0" stroke="#FFFFFF" stroke-width="2"/>
<line x1="1844.5" y1="891.0" x2="1844.5" y2="895.0" stroke="#FFFFFF" stroke-width="2" stroke-linecap="round"/>
<line x1="1850.5" y1="891.0" x2="1850.5" y2="895.0" stroke="#FFFFFF" stroke-width="2" stroke-linecap="round"/>
<text x="1847.5" y="933.0" font-size="11.5" font-weight="700" fill="#062B5F" text-anchor="middle">Open</text>
</g>
<rect x="16" y="966" width="1888" height="130" fill="#F4F8FD"/>
<rect x="26" y="984" width="4" height="76" rx="2" fill="#245C9A"/>
<text x="40" y="1000" font-size="12" fill="#536781" font-weight="700">S8</text>
<text x="40" y="1022" font-size="13" fill="#062B5F" font-weight="700">Packing handling</text>
<text x="176.0" y="984.0" font-size="12.5" fill="#062B5F">Module connector</text>
<text x="176.0" y="1000.0" font-size="12.5" fill="#062B5F">receives handling</text>
<text x="176.0" y="1016.0" font-size="12.5" fill="#062B5F">damage</text>
<circle cx="334" cy="980" r="2.4" fill="#0B3A78"/>
<text x="343.0" y="984.0" font-size="12.5" fill="#062B5F">Customer installation</text>
<text x="343.0" y="1000.0" font-size="12.5" fill="#062B5F">issue</text>
<circle cx="334" cy="1015" r="2.4" fill="#0B3A78"/>
<text x="343.0" y="1019.0" font-size="12.5" fill="#062B5F">Return analysis</text>
<text x="343.0" y="1035.0" font-size="12.5" fill="#062B5F">workload</text>
<circle cx="514" cy="980" r="2.4" fill="#0B3A78"/>
<text x="523.0" y="984.0" font-size="12.5" fill="#062B5F">Insufficient cap control</text>
<circle cx="514" cy="999" r="2.4" fill="#0B3A78"/>
<text x="523.0" y="1003.0" font-size="12.5" fill="#062B5F">Operator handling variation</text>
<circle cx="749" cy="980" r="2.4" fill="#0B3A78"/>
<text x="758.0" y="984.0" font-size="12.5" fill="#062B5F">Packing instruction</text>
<circle cx="749" cy="999" r="2.4" fill="#0B3A78"/>
<text x="758.0" y="1003.0" font-size="12.5" fill="#062B5F">Protective cap requirement</text>
<circle cx="959" cy="980" r="2.4" fill="#0B3A78"/>
<text x="968.0" y="984.0" font-size="12.5" fill="#062B5F">Outgoing inspection</text>
<circle cx="959" cy="999" r="2.4" fill="#0B3A78"/>
<text x="968.0" y="1003.0" font-size="12.5" fill="#062B5F">Packing audit</text>
<text class="fmea-score-cell" data-score="6" x="1173.5" y="1037.0" font-size="16" font-weight="700" text-anchor="middle" fill="#D79200">6</text>
<text class="fmea-score-cell" data-score="3" x="1228.5" y="1037.0" font-size="16" font-weight="700" text-anchor="middle" fill="#2F8C46">3</text>
<text class="fmea-score-cell" data-score="5" x="1283.5" y="1037.0" font-size="16" font-weight="700" text-anchor="middle" fill="#D79200">5</text>
<rect class="fmea-risk-cell" data-risk-level="low" data-rpn="90" x="1311" y="966" width="70" height="130" fill="#E8F5EA" opacity="0.82"/>
<text x="1346.0" y="1037.0" font-size="16" font-weight="700" text-anchor="middle" fill="#2F8C46">90</text>
<circle cx="1394" cy="980" r="2.4" fill="#0B3A78"/>
<text x="1403.0" y="984.0" font-size="12.5" fill="#062B5F">Add cap presence checklist</text>
<circle cx="1394" cy="999" r="2.4" fill="#0B3A78"/>
<text x="1403.0" y="1003.0" font-size="12.5" fill="#062B5F">Audit packing flow</text>
<text x="1643.5" y="1035.0" font-size="12.5" font-weight="500" fill="#062B5F" text-anchor="middle">MFG</text>
<text x="1738.5" y="1035.0" font-size="12.5" font-weight="500" fill="#062B5F" text-anchor="middle">2026-06-16</text>
<g class="fmea-status-badge" data-status="Open">
<circle cx="1847.5" cy="1013.0" r="13" fill="#2B6CBF"/>
<rect x="1841.5" y="1008.0" width="12" height="11" rx="2" fill="none" stroke="#FFFFFF" stroke-width="2"/>
<line x1="1841.5" y1="1012.0" x2="1853.5" y2="1012.0" stroke="#FFFFFF" stroke-width="2"/>
<line x1="1844.5" y1="1005.0" x2="1844.5" y2="1009.0" stroke="#FFFFFF" stroke-width="2" stroke-linecap="round"/>
<line x1="1850.5" y1="1005.0" x2="1850.5" y2="1009.0" stroke="#FFFFFF" stroke-width="2" stroke-linecap="round"/>
<text x="1847.5" y="1047.0" font-size="11.5" font-weight="700" fill="#062B5F" text-anchor="middle">Open</text>
</g>
<line class="fmea-grid-line" x1="16" y1="154" x2="16" y2="1096" stroke="#AFC1DA" stroke-width="1.15"/>
<line class="fmea-grid-line" x1="166" y1="154" x2="166" y2="1096" stroke="#AFC1DA" stroke-width="1.15"/>
<line class="fmea-grid-line" x1="321" y1="154" x2="321" y2="1096" stroke="#AFC1DA" stroke-width="1.15"/>
<line class="fmea-grid-line" x1="501" y1="154" x2="501" y2="1096" stroke="#AFC1DA" stroke-width="1.15"/>
<line class="fmea-grid-line" x1="736" y1="154" x2="736" y2="1096" stroke="#AFC1DA" stroke-width="1.15"/>
<line class="fmea-grid-line" x1="946" y1="154" x2="946" y2="1096" stroke="#AFC1DA" stroke-width="1.15"/>
<line class="fmea-grid-line" x1="1146" y1="154" x2="1146" y2="1096" stroke="#AFC1DA" stroke-width="1.15"/>
<line class="fmea-grid-line" x1="1201" y1="154" x2="1201" y2="1096" stroke="#AFC1DA" stroke-width="1.15"/>
<line class="fmea-grid-line" x1="1256" y1="154" x2="1256" y2="1096" stroke="#AFC1DA" stroke-width="1.15"/>
<line class="fmea-grid-line" x1="1311" y1="154" x2="1311" y2="1096" stroke="#AFC1DA" stroke-width="1.15"/>
<line class="fmea-grid-line" x1="1381" y1="154" x2="1381" y2="1096" stroke="#AFC1DA" stroke-width="1.15"/>
<line class="fmea-grid-line" x1="1601" y1="154" x2="1601" y2="1096" stroke="#AFC1DA" stroke-width="1.15"/>
<line class="fmea-grid-line" x1="1686" y1="154" x2="1686" y2="1096" stroke="#AFC1DA" stroke-width="1.15"/>
<line class="fmea-grid-line" x1="1791" y1="154" x2="1791" y2="1096" stroke="#AFC1DA" stroke-width="1.15"/>
<line class="fmea-grid-line" x1="1904" y1="154" x2="1904" y2="1096" stroke="#AFC1DA" stroke-width="1.15"/>
<line class="fmea-grid-line" x1="16" y1="154" x2="1904" y2="154" stroke="#AFC1DA" stroke-width="1.25"/>
<line class="fmea-grid-line" x1="16" y1="216" x2="1904" y2="216" stroke="#AFC1DA" stroke-width="1.25"/>
<line class="fmea-grid-line" x1="16" y1="314" x2="1904" y2="314" stroke="#AFC1DA" stroke-width="1.15"/>
<line class="fmea-grid-line" x1="16" y1="412" x2="1904" y2="412" stroke="#AFC1DA" stroke-width="1.15"/>
<line class="fmea-grid-line" x1="16" y1="542" x2="1904" y2="542" stroke="#AFC1DA" stroke-width="1.15"/>
<line class="fmea-grid-line" x1="16" y1="656" x2="1904" y2="656" stroke="#AFC1DA" stroke-width="1.15"/>
<line class="fmea-grid-line" x1="16" y1="770" x2="1904" y2="770" stroke="#AFC1DA" stroke-width="1.15"/>
<line class="fmea-grid-line" x1="16" y1="868" x2="1904" y2="868" stroke="#AFC1DA" stroke-width="1.15"/>
<line class="fmea-grid-line" x1="16" y1="966" x2="1904" y2="966" stroke="#AFC1DA" stroke-width="1.15"/>
<line class="fmea-grid-line" x1="16" y1="1096" x2="1904" y2="1096" stroke="#AFC1DA" stroke-width="1.15"/>
</g>
<g id="fmea-priority-guide" class="fmea-panel"><rect x="24" y="1114" width="642" height="128" rx="10" fill="#F7FAFF" stroke="#8DA9CC" stroke-width="1.5"/>
<text x="42" y="1144" font-size="18" font-weight="700">RPN Priority Guide</text>
<text x="42" y="1168" font-size="12.5" font-weight="700" fill="#062B5F">RPN = S x O x D; RPN cell color shows risk level.</text>
<rect x="42.0" y="1182" width="188.0" height="42" rx="7" fill="#FCE8E8" stroke="#D12B2B" stroke-width="1.1"/>
<text x="52.0" y="1200" font-size="12.5" font-weight="700" fill="#D12B2B">RPN &gt;= 200</text>
<text x="52.0" y="1217" font-size="12" font-weight="700" fill="#062B5F">High Risk</text>
<text x="52.0" y="1238" font-size="11.5" fill="#536781">Immediate action required</text>
<rect x="244.0" y="1182" width="188.0" height="42" rx="7" fill="#FFF2D6" stroke="#D79200" stroke-width="1.1"/>
<text x="254.0" y="1200" font-size="12.5" font-weight="700" fill="#D79200">100 &lt;= RPN &lt; 200</text>
<text x="254.0" y="1217" font-size="12" font-weight="700" fill="#062B5F">Medium Risk</text>
<text x="254.0" y="1238" font-size="11.5" fill="#536781">Plan and track actions</text>
<rect x="446.0" y="1182" width="188.0" height="42" rx="7" fill="#E8F5EA" stroke="#2F8C46" stroke-width="1.1"/>
<text x="456.0" y="1200" font-size="12.5" font-weight="700" fill="#2F8C46">RPN &lt; 100</text>
<text x="456.0" y="1217" font-size="12" font-weight="700" fill="#062B5F">Low Risk</text>
<text x="456.0" y="1238" font-size="11.5" fill="#536781">Monitor and maintain</text>
</g>
<g class="fmea-panel"><rect x="690" y="1114" width="722" height="128" rx="10" fill="#F7FAFF" stroke="#8DA9CC" stroke-width="1.5"/>
<text x="708" y="1144" font-size="18" font-weight="700">Notes</text>
<text x="708" y="1172" font-size="13" fill="#536781">Dense stresscase uses eight rows and mixed risk levels.</text>
<text x="708" y="1192" font-size="13" fill="#536781">If more rows are added, the SVG should grow downward instead of shrinking text.</text>
</g>
<g class="fmea-panel"><rect x="1436" y="1114" width="456" height="128" rx="10" fill="#F7FAFF" stroke="#8DA9CC" stroke-width="1.5"/>
<text x="1454" y="1144" font-size="18" font-weight="700">Review Info</text>
<text x="1454" y="1172" font-size="13" fill="#536781">Project: Dense Pilot FMEA</text>
<text x="1454" y="1192" font-size="13" fill="#536781">Owner: Quality Engineering</text>
<text x="1454" y="1212" font-size="13" fill="#536781">Review frequency: Twice per week</text>
<text x="1454" y="1232" font-size="13" fill="#536781">Last review: 2026-05-21</text>
</g>
</g>
</svg>