<?xml version="1.0" encoding="UTF-8"?>
<svg xmlns="http://www.w3.org/2000/svg" width="3760" height="1080" viewBox="0 0 3760 1080" role="img" aria-label="Optical Transceiver Fails to Maintain Stable Output Power During High-Temperature Operation">
<defs>
<filter id="faultSoftShadow" x="-20%" y="-20%" width="140%" height="140%">
<feDropShadow dx="0" dy="6" stdDeviation="8" flood-color="#16324F" flood-opacity="0.10"/>
</filter>
</defs>
<rect x="0" y="0" width="3760" height="1080" fill="#FFFFFF"/>
<circle cx="3530" cy="20" r="3.2" fill="#BCD2EA" opacity="0.55"/>
<circle cx="3554" cy="20" r="3.2" fill="#BCD2EA" opacity="0.55"/>
<circle cx="3578" cy="20" r="3.2" fill="#BCD2EA" opacity="0.55"/>
<circle cx="3602" cy="20" r="3.2" fill="#BCD2EA" opacity="0.55"/>
<circle cx="3626" cy="20" r="3.2" fill="#BCD2EA" opacity="0.55"/>
<circle cx="3650" cy="20" r="3.2" fill="#BCD2EA" opacity="0.55"/>
<circle cx="3674" cy="20" r="3.2" fill="#BCD2EA" opacity="0.55"/>
<circle cx="3698" cy="20" r="3.2" fill="#BCD2EA" opacity="0.55"/>
<circle cx="3530" cy="44" r="3.2" fill="#BCD2EA" opacity="0.55"/>
<circle cx="3554" cy="44" r="3.2" fill="#BCD2EA" opacity="0.55"/>
<circle cx="3578" cy="44" r="3.2" fill="#BCD2EA" opacity="0.55"/>
<circle cx="3602" cy="44" r="3.2" fill="#BCD2EA" opacity="0.55"/>
<circle cx="3626" cy="44" r="3.2" fill="#BCD2EA" opacity="0.55"/>
<circle cx="3650" cy="44" r="3.2" fill="#BCD2EA" opacity="0.55"/>
<circle cx="3674" cy="44" r="3.2" fill="#BCD2EA" opacity="0.55"/>
<circle cx="3698" cy="44" r="3.2" fill="#BCD2EA" opacity="0.55"/>
<circle cx="3530" cy="68" r="3.2" fill="#BCD2EA" opacity="0.55"/>
<circle cx="3554" cy="68" r="3.2" fill="#BCD2EA" opacity="0.55"/>
<circle cx="3578" cy="68" r="3.2" fill="#BCD2EA" opacity="0.55"/>
<circle cx="3602" cy="68" r="3.2" fill="#BCD2EA" opacity="0.55"/>
<circle cx="3626" cy="68" r="3.2" fill="#BCD2EA" opacity="0.55"/>
<circle cx="3650" cy="68" r="3.2" fill="#BCD2EA" opacity="0.55"/>
<circle cx="3674" cy="68" r="3.2" fill="#BCD2EA" opacity="0.55"/>
<circle cx="3698" cy="68" r="3.2" fill="#BCD2EA" opacity="0.55"/>
<circle cx="3530" cy="92" r="3.2" fill="#BCD2EA" opacity="0.55"/>
<circle cx="3554" cy="92" r="3.2" fill="#BCD2EA" opacity="0.55"/>
<circle cx="3578" cy="92" r="3.2" fill="#BCD2EA" opacity="0.55"/>
<circle cx="3602" cy="92" r="3.2" fill="#BCD2EA" opacity="0.55"/>
<circle cx="3626" cy="92" r="3.2" fill="#BCD2EA" opacity="0.55"/>
<circle cx="3650" cy="92" r="3.2" fill="#BCD2EA" opacity="0.55"/>
<circle cx="3674" cy="92" r="3.2" fill="#BCD2EA" opacity="0.55"/>
<circle cx="3698" cy="92" r="3.2" fill="#BCD2EA" opacity="0.55"/>
<circle cx="24" cy="960" r="3.2" fill="#BCD2EA" opacity="0.55"/>
<circle cx="48" cy="960" r="3.2" fill="#BCD2EA" opacity="0.55"/>
<circle cx="72" cy="960" r="3.2" fill="#BCD2EA" opacity="0.55"/>
<circle cx="96" cy="960" r="3.2" fill="#BCD2EA" opacity="0.55"/>
<circle cx="120" cy="960" r="3.2" fill="#BCD2EA" opacity="0.55"/>
<circle cx="144" cy="960" r="3.2" fill="#BCD2EA" opacity="0.55"/>
<circle cx="168" cy="960" r="3.2" fill="#BCD2EA" opacity="0.55"/>
<circle cx="24" cy="984" r="3.2" fill="#BCD2EA" opacity="0.55"/>
<circle cx="48" cy="984" r="3.2" fill="#BCD2EA" opacity="0.55"/>
<circle cx="72" cy="984" r="3.2" fill="#BCD2EA" opacity="0.55"/>
<circle cx="96" cy="984" r="3.2" fill="#BCD2EA" opacity="0.55"/>
<circle cx="120" cy="984" r="3.2" fill="#BCD2EA" opacity="0.55"/>
<circle cx="144" cy="984" r="3.2" fill="#BCD2EA" opacity="0.55"/>
<circle cx="168" cy="984" r="3.2" fill="#BCD2EA" opacity="0.55"/>
<circle cx="24" cy="1008" r="3.2" fill="#BCD2EA" opacity="0.55"/>
<circle cx="48" cy="1008" r="3.2" fill="#BCD2EA" opacity="0.55"/>
<circle cx="72" cy="1008" r="3.2" fill="#BCD2EA" opacity="0.55"/>
<circle cx="96" cy="1008" r="3.2" fill="#BCD2EA" opacity="0.55"/>
<circle cx="120" cy="1008" r="3.2" fill="#BCD2EA" opacity="0.55"/>
<circle cx="144" cy="1008" r="3.2" fill="#BCD2EA" opacity="0.55"/>
<circle cx="168" cy="1008" r="3.2" fill="#BCD2EA" opacity="0.55"/>
<circle cx="24" cy="1032" r="3.2" fill="#BCD2EA" opacity="0.55"/>
<circle cx="48" cy="1032" r="3.2" fill="#BCD2EA" opacity="0.55"/>
<circle cx="72" cy="1032" r="3.2" fill="#BCD2EA" opacity="0.55"/>
<circle cx="96" cy="1032" r="3.2" fill="#BCD2EA" opacity="0.55"/>
<circle cx="120" cy="1032" r="3.2" fill="#BCD2EA" opacity="0.55"/>
<circle cx="144" cy="1032" r="3.2" fill="#BCD2EA" opacity="0.55"/>
<circle cx="168" cy="1032" r="3.2" fill="#BCD2EA" opacity="0.55"/>
<line x1="3430" y1="992" x2="3275" y2="992" stroke="#BCD2EA" stroke-width="2" opacity="0.55"/>
<polyline points="3348,992 3318,962 3255,962" fill="none" stroke="#BCD2EA" stroke-width="2" opacity="0.55"/>
<circle cx="3430" cy="992" r="5" fill="#BCD2EA" opacity="0.55"/>
<circle cx="3275" cy="992" r="5" fill="none" stroke="#BCD2EA" stroke-width="2" opacity="0.55"/>
<circle cx="3255" cy="962" r="5" fill="#BCD2EA" opacity="0.55"/>
<g id="fault-event-detail-panel" class="fault-event-detail-panel">
<rect x="60" y="52" width="610" height="192" rx="14" fill="#FFFFFF" stroke="#6E93BD" stroke-width="1.8" filter="url(#faultSoftShadow)"/>
<text x="84" y="90" font-family="Arial, Helvetica, Microsoft YaHei, Noto Sans CJK SC, sans-serif" font-size="22" font-weight="700" fill="#0B2E63">Event Detail</text>
<line x1="84" y1="108" x2="646" y2="108" stroke="#E6EDF5" stroke-width="2"/>
<text x="84" y="138" font-family="Arial, Helvetica, Microsoft YaHei, Noto Sans CJK SC, sans-serif" font-size="17" font-weight="500" fill="#5B6B80">This testcase protects the supported maximum of eight</text>
<text x="84" y="161" font-family="Arial, Helvetica, Microsoft YaHei, Noto Sans CJK SC, sans-serif" font-size="17" font-weight="500" fill="#5B6B80">first-level fault branches.</text>
<text x="84" y="184" font-family="Arial, Helvetica, Microsoft YaHei, Noto Sans CJK SC, sans-serif" font-size="17" font-weight="500" fill="#5B6B80">- Recommended review range remains 3-5 first-level events</text>
<text x="84" y="207" font-family="Arial, Helvetica, Microsoft YaHei, Noto Sans CJK SC, sans-serif" font-size="17" font-weight="500" fill="#5B6B80">- Renderer must not truncate 6-8 distinct major branches</text>
</g>
<g id="fault-tree-legend" class="fault-tree-legend">
<rect x="3390.0" y="52" width="300.0" height="208.0" rx="12" fill="#FFFFFF" stroke="#9AA9BD" stroke-width="1.5" stroke-dasharray="6 4"/>
<text x="3414" y="86" font-family="Arial, Helvetica, Microsoft YaHei, Noto Sans CJK SC, sans-serif" font-size="20" font-weight="700" fill="#0B2E63">Legend</text>
<g class="fault-gate fault-gate-or" data-gate="OR">
<path d="M 3417.3 137.9 C 3426.0 110.1 3448.0 110.1 3456.7 137.9 C 3444.9 130.7 3429.1 130.7 3417.3 137.9 Z" fill="#0B2E63"/>
<text x="3437.0" y="128.6" text-anchor="middle" font-family="Arial, Helvetica, Microsoft YaHei, Noto Sans CJK SC, sans-serif" font-size="8.7" font-weight="700" fill="#FFFFFF">OR</text>
</g>
<text x="3484.0" y="131.0" font-family="Arial, Helvetica, Microsoft YaHei, Noto Sans CJK SC, sans-serif" font-size="17" font-weight="600" fill="#0B2E63">OR Gate</text>
<g class="fault-gate fault-gate-and" data-gate="AND">
<path d="M 3417.3 179.9 L 3417.3 166.0 C 3417.3 152.1 3456.7 152.1 3456.7 166.0 L 3456.7 179.9 Z" fill="#DCEBFF" stroke="#2F6FB6" stroke-width="0.9"/>
<text x="3437.0" y="170.6" text-anchor="middle" font-family="Arial, Helvetica, Microsoft YaHei, Noto Sans CJK SC, sans-serif" font-size="8.7" font-weight="700" fill="#0B2E63">AND</text>
</g>
<text x="3484.0" y="173.0" font-family="Arial, Helvetica, Microsoft YaHei, Noto Sans CJK SC, sans-serif" font-size="17" font-weight="600" fill="#0B2E63">AND Gate</text>
<rect x="3418.0" y="193.0" width="38" height="30" rx="7" fill="#FFFFFF" stroke="#6E93BD" stroke-width="1.5"/>
<text x="3484.0" y="215.0" font-family="Arial, Helvetica, Microsoft YaHei, Noto Sans CJK SC, sans-serif" font-size="17" font-weight="600" fill="#0B2E63">Basic Event</text>
</g>
<line x1="1880.0" y1="274.0" x2="1880.0" y2="305.0" stroke="#2F6FB6" stroke-width="2.2" stroke-linecap="round"/>
<g class="fault-gate fault-gate-or" data-gate="OR">
<path d="M 1846.0 353.0 C 1861.0 305.0 1899.0 305.0 1914.0 353.0 C 1893.6 340.6 1866.4 340.6 1846.0 353.0 Z" fill="#0B2E63"/>
<text x="1880.0" y="337.0" text-anchor="middle" font-family="Arial, Helvetica, Microsoft YaHei, Noto Sans CJK SC, sans-serif" font-size="15.0" font-weight="700" fill="#FFFFFF">OR</text>
</g>
<line x1="1880.0" y1="353.0" x2="1880.0" y2="370.0" stroke="#2F6FB6" stroke-width="2.2" stroke-linecap="round"/>
<line x1="344.0" y1="370.0" x2="3550.0" y2="370.0" stroke="#2F6FB6" stroke-width="2.2" stroke-linecap="round"/>
<line x1="344.0" y1="370.0" x2="344.0" y2="402.0" stroke="#2F6FB6" stroke-width="2.2" stroke-linecap="round"/>
<line x1="822.0" y1="370.0" x2="822.0" y2="402.0" stroke="#2F6FB6" stroke-width="2.2" stroke-linecap="round"/>
<line x1="1250.0" y1="370.0" x2="1250.0" y2="402.0" stroke="#2F6FB6" stroke-width="2.2" stroke-linecap="round"/>
<line x1="1698.0" y1="370.0" x2="1698.0" y2="402.0" stroke="#2F6FB6" stroke-width="2.2" stroke-linecap="round"/>
<line x1="2126.0" y1="370.0" x2="2126.0" y2="402.0" stroke="#2F6FB6" stroke-width="2.2" stroke-linecap="round"/>
<line x1="2564.0" y1="370.0" x2="2564.0" y2="402.0" stroke="#2F6FB6" stroke-width="2.2" stroke-linecap="round"/>
<line x1="3072.0" y1="370.0" x2="3072.0" y2="402.0" stroke="#2F6FB6" stroke-width="2.2" stroke-linecap="round"/>
<line x1="3550.0" y1="370.0" x2="3550.0" y2="402.0" stroke="#2F6FB6" stroke-width="2.2" stroke-linecap="round"/>
<line x1="344.0" y1="480.0" x2="344.0" y2="511.0" stroke="#2F6FB6" stroke-width="2.2" stroke-linecap="round"/>
<g class="fault-gate fault-gate-or" data-gate="OR">
<path d="M 310.0 559.0 C 325.0 511.0 363.0 511.0 378.0 559.0 C 357.6 546.6 330.4 546.6 310.0 559.0 Z" fill="#0B2E63"/>
<text x="344.0" y="543.0" text-anchor="middle" font-family="Arial, Helvetica, Microsoft YaHei, Noto Sans CJK SC, sans-serif" font-size="15.0" font-weight="700" fill="#FFFFFF">OR</text>
</g>
<line class="fault-branch-trunk" x1="344.0" y1="559.0" x2="344.0" y2="733.0" stroke="#2F6FB6" stroke-width="2.2" stroke-linecap="round"/>
<line class="fault-branch-line" x1="344.0" y1="645.0" x2="320.0" y2="645.0" stroke="#2F6FB6" stroke-width="2.2" stroke-linecap="round"/>
<line class="fault-branch-line" x1="344.0" y1="733.0" x2="320.0" y2="733.0" stroke="#2F6FB6" stroke-width="2.2" stroke-linecap="round"/>
<line x1="822.0" y1="480.0" x2="822.0" y2="511.0" stroke="#2F6FB6" stroke-width="2.2" stroke-linecap="round"/>
<g class="fault-gate fault-gate-or" data-gate="OR">
<path d="M 788.0 559.0 C 803.0 511.0 841.0 511.0 856.0 559.0 C 835.6 546.6 808.4 546.6 788.0 559.0 Z" fill="#0B2E63"/>
<text x="822.0" y="543.0" text-anchor="middle" font-family="Arial, Helvetica, Microsoft YaHei, Noto Sans CJK SC, sans-serif" font-size="15.0" font-weight="700" fill="#FFFFFF">OR</text>
</g>
<line class="fault-branch-trunk" x1="822.0" y1="559.0" x2="822.0" y2="733.0" stroke="#2F6FB6" stroke-width="2.2" stroke-linecap="round"/>
<line class="fault-branch-line" x1="822.0" y1="645.0" x2="798.0" y2="645.0" stroke="#2F6FB6" stroke-width="2.2" stroke-linecap="round"/>
<line class="fault-branch-line" x1="822.0" y1="733.0" x2="798.0" y2="733.0" stroke="#2F6FB6" stroke-width="2.2" stroke-linecap="round"/>
<line x1="1250.0" y1="480.0" x2="1250.0" y2="511.0" stroke="#2F6FB6" stroke-width="2.2" stroke-linecap="round"/>
<g class="fault-gate fault-gate-and" data-gate="AND">
<path d="M 1216.0 559.0 L 1216.0 535.0 C 1216.0 511.0 1284.0 511.0 1284.0 535.0 L 1284.0 559.0 Z" fill="#DCEBFF" stroke="#2F6FB6" stroke-width="1.5"/>
<text x="1250.0" y="543.0" text-anchor="middle" font-family="Arial, Helvetica, Microsoft YaHei, Noto Sans CJK SC, sans-serif" font-size="15.0" font-weight="700" fill="#0B2E63">AND</text>
</g>
<line class="fault-branch-trunk" x1="1250.0" y1="559.0" x2="1250.0" y2="721.0" stroke="#2F6FB6" stroke-width="2.2" stroke-linecap="round"/>
<line class="fault-branch-line" x1="1250.0" y1="639.0" x2="1226.0" y2="639.0" stroke="#2F6FB6" stroke-width="2.2" stroke-linecap="round"/>
<line class="fault-branch-line" x1="1250.0" y1="721.0" x2="1226.0" y2="721.0" stroke="#2F6FB6" stroke-width="2.2" stroke-linecap="round"/>
<line x1="1698.0" y1="482.0" x2="1698.0" y2="513.0" stroke="#2F6FB6" stroke-width="2.2" stroke-linecap="round"/>
<g class="fault-gate fault-gate-or" data-gate="OR">
<path d="M 1664.0 561.0 C 1679.0 513.0 1717.0 513.0 1732.0 561.0 C 1711.6 548.6 1684.4 548.6 1664.0 561.0 Z" fill="#0B2E63"/>
<text x="1698.0" y="545.0" text-anchor="middle" font-family="Arial, Helvetica, Microsoft YaHei, Noto Sans CJK SC, sans-serif" font-size="15.0" font-weight="700" fill="#FFFFFF">OR</text>
</g>
<line class="fault-branch-trunk" x1="1698.0" y1="561.0" x2="1698.0" y2="729.0" stroke="#2F6FB6" stroke-width="2.2" stroke-linecap="round"/>
<line class="fault-branch-line" x1="1698.0" y1="647.0" x2="1674.0" y2="647.0" stroke="#2F6FB6" stroke-width="2.2" stroke-linecap="round"/>
<line class="fault-branch-line" x1="1698.0" y1="729.0" x2="1674.0" y2="729.0" stroke="#2F6FB6" stroke-width="2.2" stroke-linecap="round"/>
<line x1="2126.0" y1="482.0" x2="2126.0" y2="513.0" stroke="#2F6FB6" stroke-width="2.2" stroke-linecap="round"/>
<g class="fault-gate fault-gate-or" data-gate="OR">
<path d="M 2092.0 561.0 C 2107.0 513.0 2145.0 513.0 2160.0 561.0 C 2139.6 548.6 2112.4 548.6 2092.0 561.0 Z" fill="#0B2E63"/>
<text x="2126.0" y="545.0" text-anchor="middle" font-family="Arial, Helvetica, Microsoft YaHei, Noto Sans CJK SC, sans-serif" font-size="15.0" font-weight="700" fill="#FFFFFF">OR</text>
</g>
<line class="fault-branch-trunk" x1="2126.0" y1="561.0" x2="2126.0" y2="723.0" stroke="#2F6FB6" stroke-width="2.2" stroke-linecap="round"/>
<line class="fault-branch-line" x1="2126.0" y1="641.0" x2="2102.0" y2="641.0" stroke="#2F6FB6" stroke-width="2.2" stroke-linecap="round"/>
<line class="fault-branch-line" x1="2126.0" y1="723.0" x2="2102.0" y2="723.0" stroke="#2F6FB6" stroke-width="2.2" stroke-linecap="round"/>
<line x1="2564.0" y1="482.0" x2="2564.0" y2="513.0" stroke="#2F6FB6" stroke-width="2.2" stroke-linecap="round"/>
<g class="fault-gate fault-gate-or" data-gate="OR">
<path d="M 2530.0 561.0 C 2545.0 513.0 2583.0 513.0 2598.0 561.0 C 2577.6 548.6 2550.4 548.6 2530.0 561.0 Z" fill="#0B2E63"/>
<text x="2564.0" y="545.0" text-anchor="middle" font-family="Arial, Helvetica, Microsoft YaHei, Noto Sans CJK SC, sans-serif" font-size="15.0" font-weight="700" fill="#FFFFFF">OR</text>
</g>
<line class="fault-branch-trunk" x1="2564.0" y1="561.0" x2="2564.0" y2="729.0" stroke="#2F6FB6" stroke-width="2.2" stroke-linecap="round"/>
<line class="fault-branch-line" x1="2564.0" y1="647.0" x2="2540.0" y2="647.0" stroke="#2F6FB6" stroke-width="2.2" stroke-linecap="round"/>
<line class="fault-branch-line" x1="2564.0" y1="729.0" x2="2540.0" y2="729.0" stroke="#2F6FB6" stroke-width="2.2" stroke-linecap="round"/>
<line x1="3072.0" y1="482.0" x2="3072.0" y2="513.0" stroke="#2F6FB6" stroke-width="2.2" stroke-linecap="round"/>
<g class="fault-gate fault-gate-or" data-gate="OR">
<path d="M 3038.0 561.0 C 3053.0 513.0 3091.0 513.0 3106.0 561.0 C 3085.6 548.6 3058.4 548.6 3038.0 561.0 Z" fill="#0B2E63"/>
<text x="3072.0" y="545.0" text-anchor="middle" font-family="Arial, Helvetica, Microsoft YaHei, Noto Sans CJK SC, sans-serif" font-size="15.0" font-weight="700" fill="#FFFFFF">OR</text>
</g>
<line class="fault-branch-trunk" x1="3072.0" y1="561.0" x2="3072.0" y2="735.0" stroke="#2F6FB6" stroke-width="2.2" stroke-linecap="round"/>
<line class="fault-branch-line" x1="3072.0" y1="647.0" x2="3048.0" y2="647.0" stroke="#2F6FB6" stroke-width="2.2" stroke-linecap="round"/>
<line class="fault-branch-line" x1="3072.0" y1="735.0" x2="3048.0" y2="735.0" stroke="#2F6FB6" stroke-width="2.2" stroke-linecap="round"/>
<line x1="3550.0" y1="480.0" x2="3550.0" y2="511.0" stroke="#2F6FB6" stroke-width="2.2" stroke-linecap="round"/>
<g class="fault-gate fault-gate-or" data-gate="OR">
<path d="M 3516.0 559.0 C 3531.0 511.0 3569.0 511.0 3584.0 559.0 C 3563.6 546.6 3536.4 546.6 3516.0 559.0 Z" fill="#0B2E63"/>
<text x="3550.0" y="543.0" text-anchor="middle" font-family="Arial, Helvetica, Microsoft YaHei, Noto Sans CJK SC, sans-serif" font-size="15.0" font-weight="700" fill="#FFFFFF">OR</text>
</g>
<line class="fault-branch-trunk" x1="3550.0" y1="559.0" x2="3550.0" y2="733.0" stroke="#2F6FB6" stroke-width="2.2" stroke-linecap="round"/>
<line class="fault-branch-line" x1="3550.0" y1="645.0" x2="3526.0" y2="645.0" stroke="#2F6FB6" stroke-width="2.2" stroke-linecap="round"/>
<line class="fault-branch-line" x1="3550.0" y1="733.0" x2="3526.0" y2="733.0" stroke="#2F6FB6" stroke-width="2.2" stroke-linecap="round"/>
<g class="fault-event fault-top-event">
<rect id="top-event-block" x="1650.0" y="118.0" width="460" height="156" rx="15" fill="#0B2E63" filter="url(#faultSoftShadow)"/>
<path d="M 1686.0 137.0 L 1708.0 175.0 L 1664.0 175.0 Z" fill="none" stroke="#FFFFFF" stroke-width="3" stroke-linejoin="round" opacity="0.92"/>
<line x1="1686.0" y1="150.0" x2="1686.0" y2="163.0" stroke="#FFFFFF" stroke-width="3" stroke-linecap="round"/>
<circle cx="1686.0" cy="170.0" r="2.6" fill="#FFFFFF"/>
<text x="1902.0" y="158.7" text-anchor="middle" font-family="Arial, Helvetica, Microsoft YaHei, Noto Sans CJK SC, sans-serif" font-size="24" font-weight="700" fill="#FFFFFF">Optical Transceiver Fails to</text>
<text x="1902.0" y="186.7" text-anchor="middle" font-family="Arial, Helvetica, Microsoft YaHei, Noto Sans CJK SC, sans-serif" font-size="24" font-weight="700" fill="#FFFFFF">Maintain Stable Output Power</text>
<text x="1902.0" y="214.7" text-anchor="middle" font-family="Arial, Helvetica, Microsoft YaHei, Noto Sans CJK SC, sans-serif" font-size="24" font-weight="700" fill="#FFFFFF">During High-Temperature</text>
<text x="1902.0" y="242.7" text-anchor="middle" font-family="Arial, Helvetica, Microsoft YaHei, Noto Sans CJK SC, sans-serif" font-size="24" font-weight="700" fill="#FFFFFF">Operation</text>
</g>
<g class="fault-event fault-intermediate-event">
<rect x="204.0" y="402.0" width="280" height="78" rx="11" fill="#F3F8FF" stroke="#2F6FB6" stroke-width="1.8"/>
<text x="344.0" y="444.0" text-anchor="middle" font-family="Arial, Helvetica, Microsoft YaHei, Noto Sans CJK SC, sans-serif" font-size="18" font-weight="700" fill="#0B2E63">Laser Source Instability</text>
</g>
<g class="fault-event fault-basic-event">
<rect x="110.0" y="608.0" width="210" height="74" rx="11" fill="#FFFFFF" stroke="#6E93BD" stroke-width="1.8"/>
<text x="215.0" y="640.7" text-anchor="middle" font-family="Arial, Helvetica, Microsoft YaHei, Noto Sans CJK SC, sans-serif" font-size="15" font-weight="600" fill="#0B2E63">Laser chip margin</text>
<text x="215.0" y="659.7" text-anchor="middle" font-family="Arial, Helvetica, Microsoft YaHei, Noto Sans CJK SC, sans-serif" font-size="15" font-weight="600" fill="#0B2E63">low</text>
</g>
<g class="fault-event fault-basic-event">
<rect x="70.0" y="696.0" width="250" height="74" rx="11" fill="#FFFFFF" stroke="#6E93BD" stroke-width="1.8"/>
<text x="195.0" y="728.7" text-anchor="middle" font-family="Arial, Helvetica, Microsoft YaHei, Noto Sans CJK SC, sans-serif" font-size="15" font-weight="600" fill="#0B2E63">ESD damage during</text>
<text x="195.0" y="747.7" text-anchor="middle" font-family="Arial, Helvetica, Microsoft YaHei, Noto Sans CJK SC, sans-serif" font-size="15" font-weight="600" fill="#0B2E63">handling</text>
</g>
<g class="fault-event fault-intermediate-event">
<rect x="682.0" y="402.0" width="280" height="78" rx="11" fill="#F3F8FF" stroke="#2F6FB6" stroke-width="1.8"/>
<text x="822.0" y="444.0" text-anchor="middle" font-family="Arial, Helvetica, Microsoft YaHei, Noto Sans CJK SC, sans-serif" font-size="18" font-weight="700" fill="#0B2E63">Optical Coupling Drift</text>
</g>
<g class="fault-event fault-basic-event">
<rect x="588.0" y="608.0" width="210" height="74" rx="11" fill="#FFFFFF" stroke="#6E93BD" stroke-width="1.8"/>
<text x="693.0" y="640.7" text-anchor="middle" font-family="Arial, Helvetica, Microsoft YaHei, Noto Sans CJK SC, sans-serif" font-size="15" font-weight="600" fill="#0B2E63">Lens alignment</text>
<text x="693.0" y="659.7" text-anchor="middle" font-family="Arial, Helvetica, Microsoft YaHei, Noto Sans CJK SC, sans-serif" font-size="15" font-weight="600" fill="#0B2E63">shifts</text>
</g>
<g class="fault-event fault-basic-event">
<rect x="518.0" y="696.0" width="280" height="74" rx="11" fill="#FFFFFF" stroke="#6E93BD" stroke-width="1.8"/>
<text x="658.0" y="728.7" text-anchor="middle" font-family="Arial, Helvetica, Microsoft YaHei, Noto Sans CJK SC, sans-serif" font-size="15" font-weight="600" fill="#0B2E63">Optical surface</text>
<text x="658.0" y="747.7" text-anchor="middle" font-family="Arial, Helvetica, Microsoft YaHei, Noto Sans CJK SC, sans-serif" font-size="15" font-weight="600" fill="#0B2E63">contamination</text>
</g>
<g class="fault-event fault-intermediate-event">
<rect x="1110.0" y="402.0" width="280" height="78" rx="11" fill="#F3F8FF" stroke="#2F6FB6" stroke-width="1.8"/>
<text x="1250.0" y="444.0" text-anchor="middle" font-family="Arial, Helvetica, Microsoft YaHei, Noto Sans CJK SC, sans-serif" font-size="18" font-weight="700" fill="#0B2E63">Thermal Control Failure</text>
</g>
<g class="fault-event fault-basic-event">
<rect x="1016.0" y="608.0" width="210" height="62" rx="11" fill="#FFFFFF" stroke="#6E93BD" stroke-width="1.8"/>
<text x="1121.0" y="644.2" text-anchor="middle" font-family="Arial, Helvetica, Microsoft YaHei, Noto Sans CJK SC, sans-serif" font-size="15" font-weight="600" fill="#0B2E63">Heat generation high</text>
</g>
<g class="fault-event fault-basic-event">
<rect x="996.0" y="684.0" width="230" height="74" rx="11" fill="#FFFFFF" stroke="#6E93BD" stroke-width="1.8"/>
<text x="1111.0" y="716.7" text-anchor="middle" font-family="Arial, Helvetica, Microsoft YaHei, Noto Sans CJK SC, sans-serif" font-size="15" font-weight="600" fill="#0B2E63">Thermal resistance</text>
<text x="1111.0" y="735.7" text-anchor="middle" font-family="Arial, Helvetica, Microsoft YaHei, Noto Sans CJK SC, sans-serif" font-size="15" font-weight="600" fill="#0B2E63">high</text>
</g>
<g class="fault-event fault-intermediate-event">
<rect x="1558.0" y="402.0" width="280" height="80" rx="11" fill="#F3F8FF" stroke="#2F6FB6" stroke-width="1.8"/>
<text x="1698.0" y="434.0" text-anchor="middle" font-family="Arial, Helvetica, Microsoft YaHei, Noto Sans CJK SC, sans-serif" font-size="18" font-weight="700" fill="#0B2E63">Electrical Drive</text>
<text x="1698.0" y="456.0" text-anchor="middle" font-family="Arial, Helvetica, Microsoft YaHei, Noto Sans CJK SC, sans-serif" font-size="18" font-weight="700" fill="#0B2E63">Abnormality</text>
</g>
<g class="fault-event fault-basic-event">
<rect x="1424.0" y="610.0" width="250" height="74" rx="11" fill="#FFFFFF" stroke="#6E93BD" stroke-width="1.8"/>
<text x="1549.0" y="642.7" text-anchor="middle" font-family="Arial, Helvetica, Microsoft YaHei, Noto Sans CJK SC, sans-serif" font-size="15" font-weight="600" fill="#0B2E63">Driver circuit</text>
<text x="1549.0" y="661.7" text-anchor="middle" font-family="Arial, Helvetica, Microsoft YaHei, Noto Sans CJK SC, sans-serif" font-size="15" font-weight="600" fill="#0B2E63">oscillates</text>
</g>
<g class="fault-event fault-basic-event">
<rect x="1464.0" y="698.0" width="210" height="62" rx="11" fill="#FFFFFF" stroke="#6E93BD" stroke-width="1.8"/>
<text x="1569.0" y="734.2" text-anchor="middle" font-family="Arial, Helvetica, Microsoft YaHei, Noto Sans CJK SC, sans-serif" font-size="15" font-weight="600" fill="#0B2E63">Power supply noise</text>
</g>
<g class="fault-event fault-intermediate-event">
<rect x="1986.0" y="402.0" width="280" height="80" rx="11" fill="#F3F8FF" stroke="#2F6FB6" stroke-width="1.8"/>
<text x="2126.0" y="445.0" text-anchor="middle" font-family="Arial, Helvetica, Microsoft YaHei, Noto Sans CJK SC, sans-serif" font-size="18" font-weight="700" fill="#0B2E63">Package Mechanical Stress</text>
</g>
<g class="fault-event fault-basic-event">
<rect x="1892.0" y="610.0" width="210" height="62" rx="11" fill="#FFFFFF" stroke="#6E93BD" stroke-width="1.8"/>
<text x="1997.0" y="646.2" text-anchor="middle" font-family="Arial, Helvetica, Microsoft YaHei, Noto Sans CJK SC, sans-serif" font-size="15" font-weight="600" fill="#0B2E63">CTE mismatch</text>
</g>
<g class="fault-event fault-basic-event">
<rect x="1872.0" y="686.0" width="230" height="74" rx="11" fill="#FFFFFF" stroke="#6E93BD" stroke-width="1.8"/>
<text x="1987.0" y="718.7" text-anchor="middle" font-family="Arial, Helvetica, Microsoft YaHei, Noto Sans CJK SC, sans-serif" font-size="15" font-weight="600" fill="#0B2E63">Curing shrinkage</text>
<text x="1987.0" y="737.7" text-anchor="middle" font-family="Arial, Helvetica, Microsoft YaHei, Noto Sans CJK SC, sans-serif" font-size="15" font-weight="600" fill="#0B2E63">stress</text>
</g>
<g class="fault-event fault-intermediate-event">
<rect x="2424.0" y="402.0" width="280" height="80" rx="11" fill="#F3F8FF" stroke="#2F6FB6" stroke-width="1.8"/>
<text x="2564.0" y="445.0" text-anchor="middle" font-family="Arial, Helvetica, Microsoft YaHei, Noto Sans CJK SC, sans-serif" font-size="18" font-weight="700" fill="#0B2E63">Material Process Weakness</text>
</g>
<g class="fault-event fault-basic-event">
<rect x="2300.0" y="610.0" width="240" height="74" rx="11" fill="#FFFFFF" stroke="#6E93BD" stroke-width="1.8"/>
<text x="2420.0" y="642.7" text-anchor="middle" font-family="Arial, Helvetica, Microsoft YaHei, Noto Sans CJK SC, sans-serif" font-size="15" font-weight="600" fill="#0B2E63">Adhesive batch</text>
<text x="2420.0" y="661.7" text-anchor="middle" font-family="Arial, Helvetica, Microsoft YaHei, Noto Sans CJK SC, sans-serif" font-size="15" font-weight="600" fill="#0B2E63">variation</text>
</g>
<g class="fault-event fault-basic-event">
<rect x="2330.0" y="698.0" width="210" height="62" rx="11" fill="#FFFFFF" stroke="#6E93BD" stroke-width="1.8"/>
<text x="2435.0" y="734.2" text-anchor="middle" font-family="Arial, Helvetica, Microsoft YaHei, Noto Sans CJK SC, sans-serif" font-size="15" font-weight="600" fill="#0B2E63">Solder voids</text>
</g>
<g class="fault-event fault-intermediate-event">
<rect x="2932.0" y="402.0" width="280" height="80" rx="11" fill="#F3F8FF" stroke="#2F6FB6" stroke-width="1.8"/>
<text x="3072.0" y="434.0" text-anchor="middle" font-family="Arial, Helvetica, Microsoft YaHei, Noto Sans CJK SC, sans-serif" font-size="18" font-weight="700" fill="#0B2E63">External Environment</text>
<text x="3072.0" y="456.0" text-anchor="middle" font-family="Arial, Helvetica, Microsoft YaHei, Noto Sans CJK SC, sans-serif" font-size="18" font-weight="700" fill="#0B2E63">Overstress</text>
</g>
<g class="fault-event fault-basic-event">
<rect x="2738.0" y="610.0" width="310" height="74" rx="11" fill="#FFFFFF" stroke="#6E93BD" stroke-width="1.8"/>
<text x="2893.0" y="642.7" text-anchor="middle" font-family="Arial, Helvetica, Microsoft YaHei, Noto Sans CJK SC, sans-serif" font-size="15" font-weight="600" fill="#0B2E63">Operating temperature beyond</text>
<text x="2893.0" y="661.7" text-anchor="middle" font-family="Arial, Helvetica, Microsoft YaHei, Noto Sans CJK SC, sans-serif" font-size="15" font-weight="600" fill="#0B2E63">spec</text>
</g>
<g class="fault-event fault-basic-event">
<rect x="2838.0" y="698.0" width="210" height="74" rx="11" fill="#FFFFFF" stroke="#6E93BD" stroke-width="1.8"/>
<text x="2943.0" y="730.7" text-anchor="middle" font-family="Arial, Helvetica, Microsoft YaHei, Noto Sans CJK SC, sans-serif" font-size="15" font-weight="600" fill="#0B2E63">Poor customer</text>
<text x="2943.0" y="749.7" text-anchor="middle" font-family="Arial, Helvetica, Microsoft YaHei, Noto Sans CJK SC, sans-serif" font-size="15" font-weight="600" fill="#0B2E63">airflow</text>
</g>
<g class="fault-event fault-intermediate-event">
<rect x="3410.0" y="402.0" width="280" height="78" rx="11" fill="#F3F8FF" stroke="#2F6FB6" stroke-width="1.8"/>
<text x="3550.0" y="444.0" text-anchor="middle" font-family="Arial, Helvetica, Microsoft YaHei, Noto Sans CJK SC, sans-serif" font-size="18" font-weight="700" fill="#0B2E63">Measurement System Error</text>
</g>
<g class="fault-event fault-basic-event">
<rect x="3246.0" y="608.0" width="280" height="74" rx="11" fill="#FFFFFF" stroke="#6E93BD" stroke-width="1.8"/>
<text x="3386.0" y="640.7" text-anchor="middle" font-family="Arial, Helvetica, Microsoft YaHei, Noto Sans CJK SC, sans-serif" font-size="15" font-weight="600" fill="#0B2E63">Power meter calibration</text>
<text x="3386.0" y="659.7" text-anchor="middle" font-family="Arial, Helvetica, Microsoft YaHei, Noto Sans CJK SC, sans-serif" font-size="15" font-weight="600" fill="#0B2E63">drift</text>
</g>
<g class="fault-event fault-basic-event">
<rect x="3246.0" y="696.0" width="280" height="74" rx="11" fill="#FFFFFF" stroke="#6E93BD" stroke-width="1.8"/>
<text x="3386.0" y="728.7" text-anchor="middle" font-family="Arial, Helvetica, Microsoft YaHei, Noto Sans CJK SC, sans-serif" font-size="15" font-weight="600" fill="#0B2E63">Test fixture contact</text>
<text x="3386.0" y="747.7" text-anchor="middle" font-family="Arial, Helvetica, Microsoft YaHei, Noto Sans CJK SC, sans-serif" font-size="15" font-weight="600" fill="#0B2E63">unstable</text>
</g>
</svg>