<svg xmlns="http://www.w3.org/2000/svg" width="1920" height="1922" viewBox="0 0 1920 1922" role="img" aria-label="Exclusion tree diagram">
<defs>
  <filter id="softShadow" x="-20%" y="-20%" width="140%" height="160%">
    <feDropShadow dx="6" dy="8" stdDeviation="6" flood-color="#0B2E63" flood-opacity="0.10"/>
  </filter>
  <filter id="subtleShadow" x="-20%" y="-20%" width="140%" height="160%">
    <feDropShadow dx="3" dy="5" stdDeviation="5" flood-color="#0B2E63" flood-opacity="0.08"/>
  </filter>
  <marker id="arrowNavy" viewBox="0 0 10 10" refX="8.5" refY="5" markerWidth="7" markerHeight="7" orient="auto-start-reverse">
    <path d="M 0 0 L 10 5 L 0 10 z" fill="#0B3A75"/>
  </marker>
</defs>
<rect width="1920" height="1922" fill="#FFFFFF"/>
<g id="exclusion-event-detail-panel">
<rect x="48" y="46" width="500" height="325.0" rx="14" fill="#FFFFFF" stroke="#6E93BD" stroke-width="1.8" filter="url(#subtleShadow)"/>
<text x="76" y="90" font-family="Arial, Helvetica, Microsoft YaHei, Noto Sans CJK SC, sans-serif" font-size="26" font-weight="700" fill="#0B2E63">Event Detail</text>
<line x1="76" y1="110" x2="520" y2="110" stroke="#CBD5E1" stroke-width="1.5"/>
<text x="76" y="142" font-family="Arial, Helvetica, Microsoft YaHei, Noto Sans CJK SC, sans-serif" font-size="18" fill="#5B677A">The unit intermittently fails during</text>
<text x="76" y="169" font-family="Arial, Helvetica, Microsoft YaHei, Noto Sans CJK SC, sans-serif" font-size="18" fill="#5B677A">startup after overnight storage, then</text>
<text x="76" y="196" font-family="Arial, Helvetica, Microsoft YaHei, Noto Sans CJK SC, sans-serif" font-size="18" fill="#5B677A">recovers after a full power cycle.</text>
<text x="76" y="223" font-family="Arial, Helvetica, Microsoft YaHei, Noto Sans CJK SC, sans-serif" font-size="17" fill="#5B677A">- Observed in validation and engineering</text>
<text x="76" y="247" font-family="Arial, Helvetica, Microsoft YaHei, Noto Sans CJK SC, sans-serif" font-size="17" fill="#5B677A">  debug</text>
<text x="76" y="271" font-family="Arial, Helvetica, Microsoft YaHei, Noto Sans CJK SC, sans-serif" font-size="17" fill="#5B677A">- Use this path to eliminate common</text>
<text x="76" y="295" font-family="Arial, Helvetica, Microsoft YaHei, Noto Sans CJK SC, sans-serif" font-size="17" fill="#5B677A">  causes first</text>
<text x="76" y="319" font-family="Arial, Helvetica, Microsoft YaHei, Noto Sans CJK SC, sans-serif" font-size="17" fill="#5B677A">- Escalate only after all checks pass</text>
</g>
<g class="exclusion-top-event">
<rect id="exclusion-top-event-block" x="610.0" y="72.0" width="300" height="154.0" rx="14" fill="#0B2E63" filter="url(#softShadow)"/>
<text x="760.0" y="104.0" text-anchor="middle" font-family="Arial, Helvetica, Microsoft YaHei, Noto Sans CJK SC, sans-serif" font-size="24" font-weight="700" fill="#FFFFFF">Intermittent</text>
<text x="760.0" y="134.0" text-anchor="middle" font-family="Arial, Helvetica, Microsoft YaHei, Noto Sans CJK SC, sans-serif" font-size="24" font-weight="700" fill="#FFFFFF">Startup Failure</text>
<text x="760.0" y="164.0" text-anchor="middle" font-family="Arial, Helvetica, Microsoft YaHei, Noto Sans CJK SC, sans-serif" font-size="24" font-weight="700" fill="#FFFFFF">After Overnight</text>
<text x="760.0" y="194.0" text-anchor="middle" font-family="Arial, Helvetica, Microsoft YaHei, Noto Sans CJK SC, sans-serif" font-size="24" font-weight="700" fill="#FFFFFF">Storage</text>
</g>
<line x1="760.0" y1="226.0" x2="760.0" y2="435.0" stroke="#0B3A75" stroke-width="2" marker-end="url(#arrowNavy)"/>
<g class="exclusion-checkpoint" data-check-id="1">
<rect x="580.0" y="435.0" width="360" height="138.0" rx="11" fill="#EAF3FF" stroke="#0B3A75" stroke-width="2"/>
<g class="lucide-icon" transform="translate(607.0 487.0) scale(1.42)" fill="none" stroke="#0B3A75" stroke-width="2" stroke-linecap="round" stroke-linejoin="round"><path d="M4 14a1 1 0 0 1-.78-1.63l9.9-10.2a.5.5 0 0 1 .86.46l-1.92 6.02A1 1 0 0 0 13 10h7a1 1 0 0 1 .78 1.63l-9.9 10.2a.5.5 0 0 1-.86-.46l1.92-6.02A1 1 0 0 0 11 14z" /></g>
<text x="672.0" y="465.0" font-family="Arial, Helvetica, Microsoft YaHei, Noto Sans CJK SC, sans-serif" font-size="19" font-weight="700" fill="#0B2E63">1. External power source</text>
<text x="672.0" y="492.0" font-family="Arial, Helvetica, Microsoft YaHei, Noto Sans CJK SC, sans-serif" font-size="19" font-weight="700" fill="#0B2E63">and input connector</text>
<text x="672.0" y="519.0" font-family="Arial, Helvetica, Microsoft YaHei, Noto Sans CJK SC, sans-serif" font-size="19" font-weight="700" fill="#0B2E63">remain stable during</text>
<text x="672.0" y="546.0" font-family="Arial, Helvetica, Microsoft YaHei, Noto Sans CJK SC, sans-serif" font-size="19" font-weight="700" fill="#0B2E63">startup?</text>
</g>
<line x1="898.0" y1="573.0" x2="898.0" y2="587.0" stroke="#0B3A75" stroke-width="2"/>
<path class="exclusion-fail-connector exclusion-fail-drop-connector" d="M 934.0 606.0 L 1124.0 606.0 L 1124.0 617.0" fill="none" stroke="#0B3A75" stroke-width="2" marker-end="url(#arrowNavy)"/>
<g class="exclusion-fail-chip"><rect x="862.0" y="587.0" width="72.0" height="38" rx="7" fill="#FDECEC" stroke="#C62828" stroke-width="1.5"/><text x="898.0" y="612.0" text-anchor="middle" font-family="Arial, Helvetica, Microsoft YaHei, Noto Sans CJK SC, sans-serif" font-size="16" font-weight="700" fill="#C62828">No</text></g>
<g class="exclusion-fail-conclusion">
<rect x="1088.0" y="617.0" width="300" height="258.0" rx="13" fill="#FFFFFF" stroke="#9AA9BD" stroke-width="1.5" filter="url(#subtleShadow)"/>
<g><circle cx="1126.0" cy="660" r="17" fill="#C62828"/><line x1="1118.0" y1="652" x2="1134.0" y2="668" stroke="#FFFFFF" stroke-width="4" stroke-linecap="round"/><line x1="1134.0" y1="652" x2="1118.0" y2="668" stroke="#FFFFFF" stroke-width="4" stroke-linecap="round"/></g>
<text x="1164.0" y="659.0" font-family="Arial, Helvetica, Microsoft YaHei, Noto Sans CJK SC, sans-serif" font-size="17" font-weight="700" fill="#0B2E63">Root Cause:</text>
<text x="1164.0" y="683.0" font-family="Arial, Helvetica, Microsoft YaHei, Noto Sans CJK SC, sans-serif" font-size="16" font-weight="700" fill="#0B2E63">Input Power</text>
<text x="1164.0" y="707.0" font-family="Arial, Helvetica, Microsoft YaHei, Noto Sans CJK SC, sans-serif" font-size="16" font-weight="700" fill="#0B2E63">Connection</text>
<text x="1164.0" y="731.0" font-family="Arial, Helvetica, Microsoft YaHei, Noto Sans CJK SC, sans-serif" font-size="16" font-weight="700" fill="#0B2E63">Instability</text>
<text x="1164.0" y="757.0" font-family="Arial, Helvetica, Microsoft YaHei, Noto Sans CJK SC, sans-serif" font-size="14" fill="#5B677A">Check adapter, cable</text>
<text x="1164.0" y="777.0" font-family="Arial, Helvetica, Microsoft YaHei, Noto Sans CJK SC, sans-serif" font-size="14" fill="#5B677A">bend, connector</text>
<text x="1164.0" y="797.0" font-family="Arial, Helvetica, Microsoft YaHei, Noto Sans CJK SC, sans-serif" font-size="14" fill="#5B677A">retention, and</text>
<text x="1164.0" y="817.0" font-family="Arial, Helvetica, Microsoft YaHei, Noto Sans CJK SC, sans-serif" font-size="14" fill="#5B677A">contact resistance.</text>
</g>
<path class="exclusion-pass-connector" d="M 664.0 573.0 L 664.0 606.0 L 595.0 606.0 L 595.0 637.0" fill="none" stroke="#0B3A75" stroke-width="2" marker-end="url(#arrowNavy)"/>
<g class="exclusion-pass-chip"><rect x="628.0" y="587.0" width="72.0" height="38" rx="7" fill="#EAF6EA" stroke="#2E7D32" stroke-width="1.5"/><text x="664.0" y="612.0" text-anchor="middle" font-family="Arial, Helvetica, Microsoft YaHei, Noto Sans CJK SC, sans-serif" font-size="16" font-weight="700" fill="#2E7D32">Yes</text></g>
<g class="exclusion-checkpoint" data-check-id="2">
<rect x="415.0" y="637.0" width="360" height="111.0" rx="11" fill="#EAF3FF" stroke="#0B3A75" stroke-width="2"/>
<g class="lucide-icon" transform="translate(442.0 675.5) scale(1.42)" fill="none" stroke="#0B3A75" stroke-width="2" stroke-linecap="round" stroke-linejoin="round"><path d="M15.536 11.293a1 1 0 0 0 0 1.414l2.376 2.377a1 1 0 0 0 1.414 0l2.377-2.377a1 1 0 0 0 0-1.414l-2.377-2.377a1 1 0 0 0-1.414 0z" />
  <path d="M2.297 11.293a1 1 0 0 0 0 1.414l2.377 2.377a1 1 0 0 0 1.414 0l2.377-2.377a1 1 0 0 0 0-1.414L6.088 8.916a1 1 0 0 0-1.414 0z" />
  <path d="M8.916 17.912a1 1 0 0 0 0 1.415l2.377 2.376a1 1 0 0 0 1.414 0l2.377-2.376a1 1 0 0 0 0-1.415l-2.377-2.376a1 1 0 0 0-1.414 0z" />
  <path d="M8.916 4.674a1 1 0 0 0 0 1.414l2.377 2.376a1 1 0 0 0 1.414 0l2.377-2.376a1 1 0 0 0 0-1.414l-2.377-2.377a1 1 0 0 0-1.414 0z" /></g>
<text x="507.0" y="666.5" font-family="Arial, Helvetica, Microsoft YaHei, Noto Sans CJK SC, sans-serif" font-size="19" font-weight="700" fill="#0B2E63">2. Power module output</text>
<text x="507.0" y="693.5" font-family="Arial, Helvetica, Microsoft YaHei, Noto Sans CJK SC, sans-serif" font-size="19" font-weight="700" fill="#0B2E63">reaches nominal voltage</text>
<text x="507.0" y="720.5" font-family="Arial, Helvetica, Microsoft YaHei, Noto Sans CJK SC, sans-serif" font-size="19" font-weight="700" fill="#0B2E63">before controller boot?</text>
</g>
<line x1="733.0" y1="748.0" x2="733.0" y2="762.0" stroke="#0B3A75" stroke-width="2"/>
<path class="exclusion-fail-connector exclusion-fail-drop-connector" d="M 769.0 781.0 L 959.0 781.0 L 959.0 899.0" fill="none" stroke="#0B3A75" stroke-width="2" marker-end="url(#arrowNavy)"/>
<g class="exclusion-fail-chip"><rect x="697.0" y="762.0" width="72.0" height="38" rx="7" fill="#FDECEC" stroke="#C62828" stroke-width="1.5"/><text x="733.0" y="787.0" text-anchor="middle" font-family="Arial, Helvetica, Microsoft YaHei, Noto Sans CJK SC, sans-serif" font-size="16" font-weight="700" fill="#C62828">No</text></g>
<g class="exclusion-fail-conclusion">
<rect x="923.0" y="899.0" width="300" height="214.0" rx="13" fill="#FFFFFF" stroke="#9AA9BD" stroke-width="1.5" filter="url(#subtleShadow)"/>
<g><circle cx="961.0" cy="942" r="17" fill="#C62828"/><line x1="953.0" y1="934" x2="969.0" y2="950" stroke="#FFFFFF" stroke-width="4" stroke-linecap="round"/><line x1="969.0" y1="934" x2="953.0" y2="950" stroke="#FFFFFF" stroke-width="4" stroke-linecap="round"/></g>
<text x="999.0" y="941.0" font-family="Arial, Helvetica, Microsoft YaHei, Noto Sans CJK SC, sans-serif" font-size="17" font-weight="700" fill="#0B2E63">Root Cause:</text>
<text x="999.0" y="965.0" font-family="Arial, Helvetica, Microsoft YaHei, Noto Sans CJK SC, sans-serif" font-size="16" font-weight="700" fill="#0B2E63">Delayed Power</text>
<text x="999.0" y="989.0" font-family="Arial, Helvetica, Microsoft YaHei, Noto Sans CJK SC, sans-serif" font-size="16" font-weight="700" fill="#0B2E63">Module Ramp</text>
<text x="999.0" y="1015.0" font-family="Arial, Helvetica, Microsoft YaHei, Noto Sans CJK SC, sans-serif" font-size="14" fill="#5B677A">Measure ramp time</text>
<text x="999.0" y="1035.0" font-family="Arial, Helvetica, Microsoft YaHei, Noto Sans CJK SC, sans-serif" font-size="14" fill="#5B677A">and load transient</text>
<text x="999.0" y="1055.0" font-family="Arial, Helvetica, Microsoft YaHei, Noto Sans CJK SC, sans-serif" font-size="14" fill="#5B677A">at low temperature.</text>
</g>
<path class="exclusion-pass-connector" d="M 499.0 748.0 L 499.0 781.0 L 430.0 781.0 L 430.0 812.0" fill="none" stroke="#0B3A75" stroke-width="2" marker-end="url(#arrowNavy)"/>
<g class="exclusion-pass-chip"><rect x="463.0" y="762.0" width="72.0" height="38" rx="7" fill="#EAF6EA" stroke="#2E7D32" stroke-width="1.5"/><text x="499.0" y="787.0" text-anchor="middle" font-family="Arial, Helvetica, Microsoft YaHei, Noto Sans CJK SC, sans-serif" font-size="16" font-weight="700" fill="#2E7D32">Yes</text></g>
<g class="exclusion-checkpoint" data-check-id="3">
<rect x="250.0" y="812.0" width="360" height="138.0" rx="11" fill="#EAF3FF" stroke="#0B3A75" stroke-width="2"/>
<g class="lucide-icon" transform="translate(277.0 864.0) scale(1.42)" fill="none" stroke="#0B3A75" stroke-width="2" stroke-linecap="round" stroke-linejoin="round"><path d="M12 20v2" />
  <path d="M12 2v2" />
  <path d="M17 20v2" />
  <path d="M17 2v2" />
  <path d="M2 12h2" />
  <path d="M2 17h2" />
  <path d="M2 7h2" />
  <path d="M20 12h2" />
  <path d="M20 17h2" />
  <path d="M20 7h2" />
  <path d="M7 20v2" />
  <path d="M7 2v2" />
  <rect x="4" y="4" width="16" height="16" rx="2" />
  <rect x="8" y="8" width="8" height="8" rx="1" /></g>
<text x="342.0" y="842.0" font-family="Arial, Helvetica, Microsoft YaHei, Noto Sans CJK SC, sans-serif" font-size="19" font-weight="700" fill="#0B2E63">3. Control board clock</text>
<text x="342.0" y="869.0" font-family="Arial, Helvetica, Microsoft YaHei, Noto Sans CJK SC, sans-serif" font-size="19" font-weight="700" fill="#0B2E63">and reset signals are</text>
<text x="342.0" y="896.0" font-family="Arial, Helvetica, Microsoft YaHei, Noto Sans CJK SC, sans-serif" font-size="19" font-weight="700" fill="#0B2E63">present and sequenced</text>
<text x="342.0" y="923.0" font-family="Arial, Helvetica, Microsoft YaHei, Noto Sans CJK SC, sans-serif" font-size="19" font-weight="700" fill="#0B2E63">correctly?</text>
</g>
<line x1="568.0" y1="950.0" x2="568.0" y2="964.0" stroke="#0B3A75" stroke-width="2"/>
<path class="exclusion-fail-connector exclusion-fail-drop-connector" d="M 604.0 983.0 L 794.0 983.0 L 794.0 1137.0" fill="none" stroke="#0B3A75" stroke-width="2" marker-end="url(#arrowNavy)"/>
<g class="exclusion-fail-chip"><rect x="532.0" y="964.0" width="72.0" height="38" rx="7" fill="#FDECEC" stroke="#C62828" stroke-width="1.5"/><text x="568.0" y="989.0" text-anchor="middle" font-family="Arial, Helvetica, Microsoft YaHei, Noto Sans CJK SC, sans-serif" font-size="16" font-weight="700" fill="#C62828">No</text></g>
<g class="exclusion-fail-conclusion">
<rect x="758.0" y="1137.0" width="300" height="134.0" rx="13" fill="#FFFFFF" stroke="#9AA9BD" stroke-width="1.5" filter="url(#subtleShadow)"/>
<g><circle cx="796.0" cy="1180" r="17" fill="#C62828"/><line x1="788.0" y1="1172" x2="804.0" y2="1188" stroke="#FFFFFF" stroke-width="4" stroke-linecap="round"/><line x1="804.0" y1="1172" x2="788.0" y2="1188" stroke="#FFFFFF" stroke-width="4" stroke-linecap="round"/></g>
<text x="834.0" y="1179.0" font-family="Arial, Helvetica, Microsoft YaHei, Noto Sans CJK SC, sans-serif" font-size="17" font-weight="700" fill="#0B2E63">Root Cause:</text>
<text x="834.0" y="1203.0" font-family="Arial, Helvetica, Microsoft YaHei, Noto Sans CJK SC, sans-serif" font-size="16" font-weight="700" fill="#0B2E63">Controller Reset</text>
<text x="834.0" y="1227.0" font-family="Arial, Helvetica, Microsoft YaHei, Noto Sans CJK SC, sans-serif" font-size="16" font-weight="700" fill="#0B2E63">Or Clock Fault</text>
</g>
<path class="exclusion-pass-connector" d="M 334.0 950.0 L 334.0 983.0 L 265.0 983.0 L 265.0 1014.0" fill="none" stroke="#0B3A75" stroke-width="2" marker-end="url(#arrowNavy)"/>
<g class="exclusion-pass-chip"><rect x="298.0" y="964.0" width="72.0" height="38" rx="7" fill="#EAF6EA" stroke="#2E7D32" stroke-width="1.5"/><text x="334.0" y="989.0" text-anchor="middle" font-family="Arial, Helvetica, Microsoft YaHei, Noto Sans CJK SC, sans-serif" font-size="16" font-weight="700" fill="#2E7D32">Yes</text></g>
<g class="exclusion-checkpoint" data-check-id="4">
<rect x="85.0" y="1014.0" width="360" height="138.0" rx="11" fill="#EAF3FF" stroke="#0B3A75" stroke-width="2"/>
<g class="lucide-icon" transform="translate(112.0 1066.0) scale(1.42)" fill="none" stroke="#0B3A75" stroke-width="2" stroke-linecap="round" stroke-linejoin="round"><path d="M5 21v-6" />
  <path d="M12 21V9" />
  <path d="M19 21V3" /></g>
<text x="177.0" y="1044.0" font-family="Arial, Helvetica, Microsoft YaHei, Noto Sans CJK SC, sans-serif" font-size="19" font-weight="700" fill="#0B2E63">4. Startup command</text>
<text x="177.0" y="1071.0" font-family="Arial, Helvetica, Microsoft YaHei, Noto Sans CJK SC, sans-serif" font-size="19" font-weight="700" fill="#0B2E63">signal is detected by</text>
<text x="177.0" y="1098.0" font-family="Arial, Helvetica, Microsoft YaHei, Noto Sans CJK SC, sans-serif" font-size="19" font-weight="700" fill="#0B2E63">the controller input</text>
<text x="177.0" y="1125.0" font-family="Arial, Helvetica, Microsoft YaHei, Noto Sans CJK SC, sans-serif" font-size="19" font-weight="700" fill="#0B2E63">pin?</text>
</g>
<line x1="403.0" y1="1152.0" x2="403.0" y2="1166.0" stroke="#0B3A75" stroke-width="2"/>
<path class="exclusion-fail-connector exclusion-fail-drop-connector" d="M 439.0 1185.0 L 629.0 1185.0 L 629.0 1295.0" fill="none" stroke="#0B3A75" stroke-width="2" marker-end="url(#arrowNavy)"/>
<g class="exclusion-fail-chip"><rect x="367.0" y="1166.0" width="72.0" height="38" rx="7" fill="#FDECEC" stroke="#C62828" stroke-width="1.5"/><text x="403.0" y="1191.0" text-anchor="middle" font-family="Arial, Helvetica, Microsoft YaHei, Noto Sans CJK SC, sans-serif" font-size="16" font-weight="700" fill="#C62828">No</text></g>
<g class="exclusion-fail-conclusion">
<rect x="593.0" y="1295.0" width="300" height="134.0" rx="13" fill="#FFFFFF" stroke="#9AA9BD" stroke-width="1.5" filter="url(#subtleShadow)"/>
<g><circle cx="631.0" cy="1338" r="17" fill="#C62828"/><line x1="623.0" y1="1330" x2="639.0" y2="1346" stroke="#FFFFFF" stroke-width="4" stroke-linecap="round"/><line x1="639.0" y1="1330" x2="623.0" y2="1346" stroke="#FFFFFF" stroke-width="4" stroke-linecap="round"/></g>
<text x="669.0" y="1337.0" font-family="Arial, Helvetica, Microsoft YaHei, Noto Sans CJK SC, sans-serif" font-size="17" font-weight="700" fill="#0B2E63">Root Cause:</text>
<text x="669.0" y="1361.0" font-family="Arial, Helvetica, Microsoft YaHei, Noto Sans CJK SC, sans-serif" font-size="16" font-weight="700" fill="#0B2E63">Start Signal Path</text>
<text x="669.0" y="1385.0" font-family="Arial, Helvetica, Microsoft YaHei, Noto Sans CJK SC, sans-serif" font-size="16" font-weight="700" fill="#0B2E63">Issue</text>
</g>
<path class="exclusion-pass-connector" d="M 169.0 1152.0 L 169.0 1185.0 L 265.0 1185.0 L 265.0 1216.0" fill="none" stroke="#0B3A75" stroke-width="2" marker-end="url(#arrowNavy)"/>
<g class="exclusion-pass-chip"><rect x="133.0" y="1166.0" width="72.0" height="38" rx="7" fill="#EAF6EA" stroke="#2E7D32" stroke-width="1.5"/><text x="169.0" y="1191.0" text-anchor="middle" font-family="Arial, Helvetica, Microsoft YaHei, Noto Sans CJK SC, sans-serif" font-size="16" font-weight="700" fill="#2E7D32">Yes</text></g>
<g class="exclusion-checkpoint" data-check-id="5">
<rect x="85.0" y="1216.0" width="360" height="138.0" rx="11" fill="#EAF3FF" stroke="#0B3A75" stroke-width="2"/>
<g class="lucide-icon" transform="translate(112.0 1268.0) scale(1.42)" fill="none" stroke="#0B3A75" stroke-width="2" stroke-linecap="round" stroke-linejoin="round"><path d="M14 4v10.54a4 4 0 1 1-4 0V4a2 2 0 0 1 4 0Z" /></g>
<text x="177.0" y="1246.0" font-family="Arial, Helvetica, Microsoft YaHei, Noto Sans CJK SC, sans-serif" font-size="19" font-weight="700" fill="#0B2E63">5. Chamber temperature</text>
<text x="177.0" y="1273.0" font-family="Arial, Helvetica, Microsoft YaHei, Noto Sans CJK SC, sans-serif" font-size="19" font-weight="700" fill="#0B2E63">profile and soak</text>
<text x="177.0" y="1300.0" font-family="Arial, Helvetica, Microsoft YaHei, Noto Sans CJK SC, sans-serif" font-size="19" font-weight="700" fill="#0B2E63">duration match the</text>
<text x="177.0" y="1327.0" font-family="Arial, Helvetica, Microsoft YaHei, Noto Sans CJK SC, sans-serif" font-size="19" font-weight="700" fill="#0B2E63">validation procedure?</text>
</g>
<line x1="403.0" y1="1354.0" x2="403.0" y2="1368.0" stroke="#0B3A75" stroke-width="2"/>
<path class="exclusion-fail-connector exclusion-fail-drop-connector" d="M 439.0 1387.0 L 629.0 1387.0 L 629.0 1453.0" fill="none" stroke="#0B3A75" stroke-width="2" marker-end="url(#arrowNavy)"/>
<g class="exclusion-fail-chip"><rect x="367.0" y="1368.0" width="72.0" height="38" rx="7" fill="#FDECEC" stroke="#C62828" stroke-width="1.5"/><text x="403.0" y="1393.0" text-anchor="middle" font-family="Arial, Helvetica, Microsoft YaHei, Noto Sans CJK SC, sans-serif" font-size="16" font-weight="700" fill="#C62828">No</text></g>
<g class="exclusion-fail-conclusion">
<rect x="593.0" y="1453.0" width="300" height="134.0" rx="13" fill="#FFFFFF" stroke="#9AA9BD" stroke-width="1.5" filter="url(#subtleShadow)"/>
<g><circle cx="631.0" cy="1496" r="17" fill="#C62828"/><line x1="623.0" y1="1488" x2="639.0" y2="1504" stroke="#FFFFFF" stroke-width="4" stroke-linecap="round"/><line x1="639.0" y1="1488" x2="623.0" y2="1504" stroke="#FFFFFF" stroke-width="4" stroke-linecap="round"/></g>
<text x="669.0" y="1495.0" font-family="Arial, Helvetica, Microsoft YaHei, Noto Sans CJK SC, sans-serif" font-size="17" font-weight="700" fill="#0B2E63">Root Cause:</text>
<text x="669.0" y="1519.0" font-family="Arial, Helvetica, Microsoft YaHei, Noto Sans CJK SC, sans-serif" font-size="16" font-weight="700" fill="#0B2E63">Thermal Test</text>
<text x="669.0" y="1543.0" font-family="Arial, Helvetica, Microsoft YaHei, Noto Sans CJK SC, sans-serif" font-size="16" font-weight="700" fill="#0B2E63">Method Deviation</text>
</g>
<path class="exclusion-pass-connector" d="M 169.0 1354.0 L 169.0 1387.0 L 265.0 1387.0 L 265.0 1418.0" fill="none" stroke="#0B3A75" stroke-width="2" marker-end="url(#arrowNavy)"/>
<g class="exclusion-pass-chip"><rect x="133.0" y="1368.0" width="72.0" height="38" rx="7" fill="#EAF6EA" stroke="#2E7D32" stroke-width="1.5"/><text x="169.0" y="1393.0" text-anchor="middle" font-family="Arial, Helvetica, Microsoft YaHei, Noto Sans CJK SC, sans-serif" font-size="16" font-weight="700" fill="#2E7D32">Yes</text></g>
<g class="exclusion-checkpoint" data-check-id="6">
<rect x="85.0" y="1418.0" width="360" height="138.0" rx="11" fill="#EAF3FF" stroke="#0B3A75" stroke-width="2"/>
<g class="lucide-icon" transform="translate(112.0 1470.0) scale(1.42)" fill="none" stroke="#0B3A75" stroke-width="2" stroke-linecap="round" stroke-linejoin="round"><path d="M22 12h-2.48a2 2 0 0 0-1.93 1.46l-2.35 8.36a.25.25 0 0 1-.48 0L9.24 2.18a.25.25 0 0 0-.48 0l-2.35 8.36A2 2 0 0 1 4.49 12H2" /></g>
<text x="177.0" y="1448.0" font-family="Arial, Helvetica, Microsoft YaHei, Noto Sans CJK SC, sans-serif" font-size="19" font-weight="700" fill="#0B2E63">6. Operator setup record</text>
<text x="177.0" y="1475.0" font-family="Arial, Helvetica, Microsoft YaHei, Noto Sans CJK SC, sans-serif" font-size="19" font-weight="700" fill="#0B2E63">confirms the correct</text>
<text x="177.0" y="1502.0" font-family="Arial, Helvetica, Microsoft YaHei, Noto Sans CJK SC, sans-serif" font-size="19" font-weight="700" fill="#0B2E63">fixture and released</text>
<text x="177.0" y="1529.0" font-family="Arial, Helvetica, Microsoft YaHei, Noto Sans CJK SC, sans-serif" font-size="19" font-weight="700" fill="#0B2E63">test instruction?</text>
</g>
<line x1="403.0" y1="1556.0" x2="403.0" y2="1570.0" stroke="#0B3A75" stroke-width="2"/>
<path class="exclusion-fail-connector exclusion-fail-drop-connector" d="M 439.0 1589.0 L 556.0 1589.0 L 556.0 1611.0" fill="none" stroke="#0B3A75" stroke-width="2" marker-end="url(#arrowNavy)"/>
<g class="exclusion-fail-chip"><rect x="367.0" y="1570.0" width="72.0" height="38" rx="7" fill="#FDECEC" stroke="#C62828" stroke-width="1.5"/><text x="403.0" y="1595.0" text-anchor="middle" font-family="Arial, Helvetica, Microsoft YaHei, Noto Sans CJK SC, sans-serif" font-size="16" font-weight="700" fill="#C62828">No</text></g>
<g class="exclusion-fail-conclusion">
<rect x="520.0" y="1611.0" width="300" height="254.0" rx="13" fill="#FFFFFF" stroke="#9AA9BD" stroke-width="1.5" filter="url(#subtleShadow)"/>
<g><circle cx="558" cy="1654" r="17" fill="#C62828"/><line x1="550" y1="1646" x2="566" y2="1662" stroke="#FFFFFF" stroke-width="4" stroke-linecap="round"/><line x1="566" y1="1646" x2="550" y2="1662" stroke="#FFFFFF" stroke-width="4" stroke-linecap="round"/></g>
<text x="596.0" y="1653.0" font-family="Arial, Helvetica, Microsoft YaHei, Noto Sans CJK SC, sans-serif" font-size="17" font-weight="700" fill="#0B2E63">Root Cause:</text>
<text x="596.0" y="1677.0" font-family="Arial, Helvetica, Microsoft YaHei, Noto Sans CJK SC, sans-serif" font-size="16" font-weight="700" fill="#0B2E63">Setup Or Method</text>
<text x="596.0" y="1701.0" font-family="Arial, Helvetica, Microsoft YaHei, Noto Sans CJK SC, sans-serif" font-size="16" font-weight="700" fill="#0B2E63">Error</text>
<text x="596.0" y="1727.0" font-family="Arial, Helvetica, Microsoft YaHei, Noto Sans CJK SC, sans-serif" font-size="14" fill="#5B677A">Review fixture</text>
<text x="596.0" y="1747.0" font-family="Arial, Helvetica, Microsoft YaHei, Noto Sans CJK SC, sans-serif" font-size="14" fill="#5B677A">revision, work</text>
<text x="596.0" y="1767.0" font-family="Arial, Helvetica, Microsoft YaHei, Noto Sans CJK SC, sans-serif" font-size="14" fill="#5B677A">instruction, and</text>
<text x="596.0" y="1787.0" font-family="Arial, Helvetica, Microsoft YaHei, Noto Sans CJK SC, sans-serif" font-size="14" fill="#5B677A">setup photo</text>
<text x="596.0" y="1807.0" font-family="Arial, Helvetica, Microsoft YaHei, Noto Sans CJK SC, sans-serif" font-size="14" fill="#5B677A">evidence.</text>
</g>
<path class="exclusion-final-pass-connector" d="M 163.0 1556.0 L 163.0 1589.0 L 163.0 1660.0" fill="none" stroke="#0B3A75" stroke-width="2" marker-end="url(#arrowNavy)"/>
<g class="exclusion-pass-chip"><rect x="127.0" y="1570.0" width="72.0" height="38" rx="7" fill="#EAF6EA" stroke="#2E7D32" stroke-width="1.5"/><text x="163.0" y="1595.0" text-anchor="middle" font-family="Arial, Helvetica, Microsoft YaHei, Noto Sans CJK SC, sans-serif" font-size="16" font-weight="700" fill="#2E7D32">Yes</text></g>
<g class="exclusion-final-pass">
<rect x="121.0" y="1660.0" width="380" height="182.0" rx="13" fill="#EAF6EA" stroke="#2E7D32" stroke-width="1.5" filter="url(#subtleShadow)"/>
<g><circle cx="159.0" cy="1703" r="17" fill="#2E7D32"/><path d="M 150.0 1703 L 157.0 1711 L 171.0 1694" fill="none" stroke="#FFFFFF" stroke-width="4" stroke-linecap="round" stroke-linejoin="round"/></g>
<text x="197.0" y="1702.0" font-family="Arial, Helvetica, Microsoft YaHei, Noto Sans CJK SC, sans-serif" font-size="17" font-weight="700" fill="#0B2E63">No Issue Found</text>
<text x="197.0" y="1726.0" font-family="Arial, Helvetica, Microsoft YaHei, Noto Sans CJK SC, sans-serif" font-size="16" font-weight="700" fill="#0B2E63">No issue found in this</text>
<text x="197.0" y="1750.0" font-family="Arial, Helvetica, Microsoft YaHei, Noto Sans CJK SC, sans-serif" font-size="16" font-weight="700" fill="#0B2E63">path. Escalate to rare</text>
<text x="197.0" y="1774.0" font-family="Arial, Helvetica, Microsoft YaHei, Noto Sans CJK SC, sans-serif" font-size="16" font-weight="700" fill="#0B2E63">component-level causes or</text>
<text x="197.0" y="1798.0" font-family="Arial, Helvetica, Microsoft YaHei, Noto Sans CJK SC, sans-serif" font-size="16" font-weight="700" fill="#0B2E63">deeper waveform capture.</text>
</g>
<g id="exclusion-tree-legend">
<rect x="1530" y="38" width="340" height="462" rx="12" fill="#FFFFFF" stroke="#6E93BD" stroke-width="1.6" stroke-dasharray="7 6"/>
<text x="1554" y="83" font-family="Arial, Helvetica, Microsoft YaHei, Noto Sans CJK SC, sans-serif" font-size="23" font-weight="700" fill="#0B2E63">Legend</text>
<rect x="1556" y="110" width="64" height="32" rx="5" fill="#EAF3FF" stroke="#0B3A75"/>
<text x="1642" y="132" font-family="Arial, Helvetica, Microsoft YaHei, Noto Sans CJK SC, sans-serif" font-size="16" font-weight="700" fill="#0B2E63">Test Step / Check Point</text>
<rect x="1556" y="186" width="64" height="32" rx="5" fill="#EAF6EA" stroke="#2E7D32"/><text x="1588" y="208" text-anchor="middle" font-family="Arial, Helvetica, Microsoft YaHei, Noto Sans CJK SC, sans-serif" font-size="15" font-weight="700" fill="#2E7D32">Yes</text>
<text x="1642" y="208" font-family="Arial, Helvetica, Microsoft YaHei, Noto Sans CJK SC, sans-serif" font-size="16" font-weight="700" fill="#0B2E63">Yes (Pass)</text>
<rect x="1556" y="262" width="64" height="32" rx="5" fill="#FDECEC" stroke="#C62828"/><text x="1588" y="284" text-anchor="middle" font-family="Arial, Helvetica, Microsoft YaHei, Noto Sans CJK SC, sans-serif" font-size="15" font-weight="700" fill="#C62828">No</text>
<text x="1642" y="284" font-family="Arial, Helvetica, Microsoft YaHei, Noto Sans CJK SC, sans-serif" font-size="16" font-weight="700" fill="#0B2E63">No (Fail)</text>
<rect x="1556" y="336" width="64" height="36" rx="6" fill="#FFFFFF" stroke="#9AA9BD"/><g><circle cx="1588" cy="354" r="17" fill="#C62828"/><line x1="1580" y1="346" x2="1596" y2="362" stroke="#FFFFFF" stroke-width="4" stroke-linecap="round"/><line x1="1596" y1="346" x2="1580" y2="362" stroke="#FFFFFF" stroke-width="4" stroke-linecap="round"/></g>
<text x="1642" y="360" font-family="Arial, Helvetica, Microsoft YaHei, Noto Sans CJK SC, sans-serif" font-size="16" font-weight="700" fill="#0B2E63">Excluded Cause</text>
<rect x="1556" y="412" width="64" height="36" rx="6" fill="#EAF6EA" stroke="#CBD5E1"/><g><circle cx="1588" cy="430" r="17" fill="#2E7D32"/><path d="M 1579 430 L 1586 438 L 1600 421" fill="none" stroke="#FFFFFF" stroke-width="4" stroke-linecap="round" stroke-linejoin="round"/></g>
<text x="1642" y="436" font-family="Arial, Helvetica, Microsoft YaHei, Noto Sans CJK SC, sans-serif" font-size="16" font-weight="700" fill="#0B2E63">No Issue Found</text>
</g>
<g id="exclusion-how-to-use">
<rect x="1270" y="911" width="620" height="286" rx="12" fill="#FFFFFF" stroke="#6E93BD" stroke-width="1.6" stroke-dasharray="7 6"/>
<text x="1294" y="953" font-family="Arial, Helvetica, Microsoft YaHei, Noto Sans CJK SC, sans-serif" font-size="20" font-weight="700" fill="#0B2E63">How to Use</text>
<rect x="1294" y="969" width="28" height="28" rx="4" fill="#0B2E63"/>
<text x="1308" y="989" text-anchor="middle" font-family="Arial, Helvetica, Microsoft YaHei, Noto Sans CJK SC, sans-serif" font-size="15" font-weight="700" fill="#FFFFFF">1</text>
<rect x="1332" y="963" width="532" height="46" fill="#FFFFFF" stroke="#CBD5E1" stroke-width="1"/>
<text x="1352" y="991" font-family="Arial, Helvetica, Microsoft YaHei, Noto Sans CJK SC, sans-serif" font-size="16" fill="#5B677A">Start from the top event and run each check in order.</text>
<rect x="1294" y="1017" width="28" height="28" rx="4" fill="#0B2E63"/>
<text x="1308" y="1037" text-anchor="middle" font-family="Arial, Helvetica, Microsoft YaHei, Noto Sans CJK SC, sans-serif" font-size="15" font-weight="700" fill="#FFFFFF">2</text>
<rect x="1332" y="1011" width="532" height="46" fill="#FFFFFF" stroke="#CBD5E1" stroke-width="1"/>
<text x="1352" y="1039" font-family="Arial, Helvetica, Microsoft YaHei, Noto Sans CJK SC, sans-serif" font-size="16" fill="#5B677A">Follow the Yes/No result downward along the arrows.</text>
<rect x="1294" y="1065" width="28" height="28" rx="4" fill="#0B2E63"/>
<text x="1308" y="1085" text-anchor="middle" font-family="Arial, Helvetica, Microsoft YaHei, Noto Sans CJK SC, sans-serif" font-size="15" font-weight="700" fill="#FFFFFF">3</text>
<rect x="1332" y="1059" width="532" height="46" fill="#FFFFFF" stroke="#CBD5E1" stroke-width="1"/>
<text x="1352" y="1087" font-family="Arial, Helvetica, Microsoft YaHei, Noto Sans CJK SC, sans-serif" font-size="16" fill="#5B677A">When a check fails, treat the side card as the priority cause to verify.</text>
<rect x="1294" y="1113" width="28" height="28" rx="4" fill="#0B2E63"/>
<text x="1308" y="1133" text-anchor="middle" font-family="Arial, Helvetica, Microsoft YaHei, Noto Sans CJK SC, sans-serif" font-size="15" font-weight="700" fill="#FFFFFF">4</text>
<rect x="1332" y="1107" width="532" height="46" fill="#FFFFFF" stroke="#CBD5E1" stroke-width="1"/>
<text x="1352" y="1135" font-family="Arial, Helvetica, Microsoft YaHei, Noto Sans CJK SC, sans-serif" font-size="16" fill="#5B677A">If all checks pass, investigate other paths or deeper causes.</text>
</g>
</svg>