<svg xmlns="http://www.w3.org/2000/svg" width="1920" height="1808" viewBox="0 0 1920 1808" role="img" aria-label="Exclusion tree diagram">
<defs>
  <filter id="softShadow" x="-20%" y="-20%" width="140%" height="160%">
    <feDropShadow dx="6" dy="8" stdDeviation="6" flood-color="#0B2E63" flood-opacity="0.10"/>
  </filter>
  <filter id="subtleShadow" x="-20%" y="-20%" width="140%" height="160%">
    <feDropShadow dx="3" dy="5" stdDeviation="5" flood-color="#0B2E63" flood-opacity="0.08"/>
  </filter>
  <marker id="arrowNavy" viewBox="0 0 10 10" refX="8.5" refY="5" markerWidth="7" markerHeight="7" orient="auto-start-reverse">
    <path d="M 0 0 L 10 5 L 0 10 z" fill="#0B3A75"/>
  </marker>
</defs>
<rect width="1920" height="1808" fill="#FFFFFF"/>
<g id="exclusion-event-detail-panel">
<rect x="48" y="46" width="500" height="255.0" rx="14" fill="#FFFFFF" stroke="#6E93BD" stroke-width="1.8" filter="url(#subtleShadow)"/>
<text x="76" y="90" font-family="Arial, Helvetica, Microsoft YaHei, Noto Sans CJK SC, sans-serif" font-size="26" font-weight="700" fill="#0B2E63">Event Detail</text>
<line x1="76" y1="110" x2="520" y2="110" stroke="#CBD5E1" stroke-width="1.5"/>
<text x="76" y="142" font-family="Arial, Helvetica, Microsoft YaHei, Noto Sans CJK SC, sans-serif" font-size="18" fill="#5B677A">The unit intermittently fails during startup after</text>
<text x="76" y="169" font-family="Arial, Helvetica, Microsoft YaHei, Noto Sans CJK SC, sans-serif" font-size="18" fill="#5B677A">overnight storage, then recovers after a full power</text>
<text x="76" y="196" font-family="Arial, Helvetica, Microsoft YaHei, Noto Sans CJK SC, sans-serif" font-size="18" fill="#5B677A">cycle.</text>
<text x="76" y="223" font-family="Arial, Helvetica, Microsoft YaHei, Noto Sans CJK SC, sans-serif" font-size="17" fill="#5B677A">- Observed in validation and engineering debug</text>
<text x="76" y="247" font-family="Arial, Helvetica, Microsoft YaHei, Noto Sans CJK SC, sans-serif" font-size="17" fill="#5B677A">- Use this path to eliminate common causes first</text>
<text x="76" y="271" font-family="Arial, Helvetica, Microsoft YaHei, Noto Sans CJK SC, sans-serif" font-size="17" fill="#5B677A">- Escalate only after all checks pass</text>
</g>
<g class="exclusion-top-event">
<rect id="exclusion-top-event-block" x="725.0" y="72.0" width="300" height="154.0" rx="14" fill="#0B2E63" filter="url(#softShadow)"/>
<text x="875.0" y="104.0" text-anchor="middle" font-family="Arial, Helvetica, Microsoft YaHei, Noto Sans CJK SC, sans-serif" font-size="24" font-weight="700" fill="#FFFFFF">Intermittent</text>
<text x="875.0" y="134.0" text-anchor="middle" font-family="Arial, Helvetica, Microsoft YaHei, Noto Sans CJK SC, sans-serif" font-size="24" font-weight="700" fill="#FFFFFF">Startup Failure</text>
<text x="875.0" y="164.0" text-anchor="middle" font-family="Arial, Helvetica, Microsoft YaHei, Noto Sans CJK SC, sans-serif" font-size="24" font-weight="700" fill="#FFFFFF">After Overnight</text>
<text x="875.0" y="194.0" text-anchor="middle" font-family="Arial, Helvetica, Microsoft YaHei, Noto Sans CJK SC, sans-serif" font-size="24" font-weight="700" fill="#FFFFFF">Storage</text>
</g>
<line x1="875.0" y1="226.0" x2="875.0" y2="365.0" stroke="#0B3A75" stroke-width="2" marker-end="url(#arrowNavy)"/>
<g class="exclusion-checkpoint" data-check-id="1">
<rect x="695.0" y="365.0" width="360" height="138.0" rx="11" fill="#EAF3FF" stroke="#0B3A75" stroke-width="2"/>
<g class="lucide-icon" transform="translate(722.0 417.0) scale(1.42)" fill="none" stroke="#0B3A75" stroke-width="2" stroke-linecap="round" stroke-linejoin="round"><path d="M4 14a1 1 0 0 1-.78-1.63l9.9-10.2a.5.5 0 0 1 .86.46l-1.92 6.02A1 1 0 0 0 13 10h7a1 1 0 0 1 .78 1.63l-9.9 10.2a.5.5 0 0 1-.86-.46l1.92-6.02A1 1 0 0 0 11 14z" /></g>
<text x="787.0" y="395.0" font-family="Arial, Helvetica, Microsoft YaHei, Noto Sans CJK SC, sans-serif" font-size="19" font-weight="700" fill="#0B2E63">1. External power source</text>
<text x="787.0" y="422.0" font-family="Arial, Helvetica, Microsoft YaHei, Noto Sans CJK SC, sans-serif" font-size="19" font-weight="700" fill="#0B2E63">and input connector</text>
<text x="787.0" y="449.0" font-family="Arial, Helvetica, Microsoft YaHei, Noto Sans CJK SC, sans-serif" font-size="19" font-weight="700" fill="#0B2E63">remain stable during</text>
<text x="787.0" y="476.0" font-family="Arial, Helvetica, Microsoft YaHei, Noto Sans CJK SC, sans-serif" font-size="19" font-weight="700" fill="#0B2E63">startup?</text>
</g>
<line x1="1013.0" y1="503.0" x2="1013.0" y2="517.0" stroke="#0B3A75" stroke-width="2"/>
<path class="exclusion-fail-connector exclusion-fail-drop-connector" d="M 1049.0 536.0 L 1303.0 536.0 L 1303.0 559.0" fill="none" stroke="#0B3A75" stroke-width="2" marker-end="url(#arrowNavy)"/>
<g class="exclusion-fail-chip"><rect x="977.0" y="517.0" width="72.0" height="38" rx="7" fill="#FDECEC" stroke="#C62828" stroke-width="1.5"/><text x="1013.0" y="542.0" text-anchor="middle" font-family="Arial, Helvetica, Microsoft YaHei, Noto Sans CJK SC, sans-serif" font-size="16" font-weight="700" fill="#C62828">No</text></g>
<g class="exclusion-fail-conclusion">
<rect x="1223.0" y="547.0" width="420" height="136.0" rx="13" fill="#FFFFFF" stroke="#9AA9BD" stroke-width="1.5" filter="url(#subtleShadow)"/>
<g><circle cx="1261.0" cy="590" r="17" fill="#C62828"/><line x1="1253.0" y1="582" x2="1269.0" y2="598" stroke="#FFFFFF" stroke-width="4" stroke-linecap="round"/><line x1="1269.0" y1="582" x2="1253.0" y2="598" stroke="#FFFFFF" stroke-width="4" stroke-linecap="round"/></g>
<text x="1299.0" y="589.0" font-family="Arial, Helvetica, Microsoft YaHei, Noto Sans CJK SC, sans-serif" font-size="17" font-weight="700" fill="#0B2E63">Root Cause:</text>
<text x="1299.0" y="613.0" font-family="Arial, Helvetica, Microsoft YaHei, Noto Sans CJK SC, sans-serif" font-size="16" font-weight="700" fill="#0B2E63">Input Power Connection Instability</text>
<text x="1299.0" y="639.0" font-family="Arial, Helvetica, Microsoft YaHei, Noto Sans CJK SC, sans-serif" font-size="14" fill="#5B677A">Check adapter, cable bend, connector retention,</text>
<text x="1299.0" y="659.0" font-family="Arial, Helvetica, Microsoft YaHei, Noto Sans CJK SC, sans-serif" font-size="14" fill="#5B677A">and contact resistance.</text>
</g>
<path class="exclusion-pass-connector" d="M 779.0 503.0 L 779.0 536.0 L 614.0 536.0 L 614.0 567.0" fill="none" stroke="#0B3A75" stroke-width="2" marker-end="url(#arrowNavy)"/>
<g class="exclusion-pass-chip"><rect x="743.0" y="517.0" width="72.0" height="38" rx="7" fill="#EAF6EA" stroke="#2E7D32" stroke-width="1.5"/><text x="779.0" y="542.0" text-anchor="middle" font-family="Arial, Helvetica, Microsoft YaHei, Noto Sans CJK SC, sans-serif" font-size="16" font-weight="700" fill="#2E7D32">Yes</text></g>
<g class="exclusion-checkpoint" data-check-id="2">
<rect x="530.0" y="567.0" width="360" height="111.0" rx="11" fill="#EAF3FF" stroke="#0B3A75" stroke-width="2"/>
<g class="lucide-icon" transform="translate(557.0 605.5) scale(1.42)" fill="none" stroke="#0B3A75" stroke-width="2" stroke-linecap="round" stroke-linejoin="round"><path d="M15.536 11.293a1 1 0 0 0 0 1.414l2.376 2.377a1 1 0 0 0 1.414 0l2.377-2.377a1 1 0 0 0 0-1.414l-2.377-2.377a1 1 0 0 0-1.414 0z" />
  <path d="M2.297 11.293a1 1 0 0 0 0 1.414l2.377 2.377a1 1 0 0 0 1.414 0l2.377-2.377a1 1 0 0 0 0-1.414L6.088 8.916a1 1 0 0 0-1.414 0z" />
  <path d="M8.916 17.912a1 1 0 0 0 0 1.415l2.377 2.376a1 1 0 0 0 1.414 0l2.377-2.376a1 1 0 0 0 0-1.415l-2.377-2.376a1 1 0 0 0-1.414 0z" />
  <path d="M8.916 4.674a1 1 0 0 0 0 1.414l2.377 2.376a1 1 0 0 0 1.414 0l2.377-2.376a1 1 0 0 0 0-1.414l-2.377-2.377a1 1 0 0 0-1.414 0z" /></g>
<text x="622.0" y="596.5" font-family="Arial, Helvetica, Microsoft YaHei, Noto Sans CJK SC, sans-serif" font-size="19" font-weight="700" fill="#0B2E63">2. Power module output</text>
<text x="622.0" y="623.5" font-family="Arial, Helvetica, Microsoft YaHei, Noto Sans CJK SC, sans-serif" font-size="19" font-weight="700" fill="#0B2E63">reaches nominal voltage</text>
<text x="622.0" y="650.5" font-family="Arial, Helvetica, Microsoft YaHei, Noto Sans CJK SC, sans-serif" font-size="19" font-weight="700" fill="#0B2E63">before controller boot?</text>
</g>
<line x1="848.0" y1="678.0" x2="848.0" y2="692.0" stroke="#0B3A75" stroke-width="2"/>
<path class="exclusion-fail-connector exclusion-fail-drop-connector" d="M 884.0 711.0 L 1138.0 711.0 L 1138.0 734.0" fill="none" stroke="#0B3A75" stroke-width="2" marker-end="url(#arrowNavy)"/>
<g class="exclusion-fail-chip"><rect x="812.0" y="692.0" width="72.0" height="38" rx="7" fill="#FDECEC" stroke="#C62828" stroke-width="1.5"/><text x="848.0" y="717.0" text-anchor="middle" font-family="Arial, Helvetica, Microsoft YaHei, Noto Sans CJK SC, sans-serif" font-size="16" font-weight="700" fill="#C62828">No</text></g>
<g class="exclusion-fail-conclusion">
<rect x="1058.0" y="722.0" width="420" height="136.0" rx="13" fill="#FFFFFF" stroke="#9AA9BD" stroke-width="1.5" filter="url(#subtleShadow)"/>
<g><circle cx="1096.0" cy="765" r="17" fill="#C62828"/><line x1="1088.0" y1="757" x2="1104.0" y2="773" stroke="#FFFFFF" stroke-width="4" stroke-linecap="round"/><line x1="1104.0" y1="757" x2="1088.0" y2="773" stroke="#FFFFFF" stroke-width="4" stroke-linecap="round"/></g>
<text x="1134.0" y="764.0" font-family="Arial, Helvetica, Microsoft YaHei, Noto Sans CJK SC, sans-serif" font-size="17" font-weight="700" fill="#0B2E63">Root Cause:</text>
<text x="1134.0" y="788.0" font-family="Arial, Helvetica, Microsoft YaHei, Noto Sans CJK SC, sans-serif" font-size="16" font-weight="700" fill="#0B2E63">Delayed Power Module Ramp</text>
<text x="1134.0" y="814.0" font-family="Arial, Helvetica, Microsoft YaHei, Noto Sans CJK SC, sans-serif" font-size="14" fill="#5B677A">Measure ramp time and load transient at low</text>
<text x="1134.0" y="834.0" font-family="Arial, Helvetica, Microsoft YaHei, Noto Sans CJK SC, sans-serif" font-size="14" fill="#5B677A">temperature.</text>
</g>
<path class="exclusion-pass-connector" d="M 614.0 678.0 L 614.0 711.0 L 449.0 711.0 L 449.0 742.0" fill="none" stroke="#0B3A75" stroke-width="2" marker-end="url(#arrowNavy)"/>
<g class="exclusion-pass-chip"><rect x="578.0" y="692.0" width="72.0" height="38" rx="7" fill="#EAF6EA" stroke="#2E7D32" stroke-width="1.5"/><text x="614.0" y="717.0" text-anchor="middle" font-family="Arial, Helvetica, Microsoft YaHei, Noto Sans CJK SC, sans-serif" font-size="16" font-weight="700" fill="#2E7D32">Yes</text></g>
<g class="exclusion-checkpoint" data-check-id="3">
<rect x="365.0" y="742.0" width="360" height="138.0" rx="11" fill="#EAF3FF" stroke="#0B3A75" stroke-width="2"/>
<g class="lucide-icon" transform="translate(392.0 794.0) scale(1.42)" fill="none" stroke="#0B3A75" stroke-width="2" stroke-linecap="round" stroke-linejoin="round"><path d="M12 20v2" />
  <path d="M12 2v2" />
  <path d="M17 20v2" />
  <path d="M17 2v2" />
  <path d="M2 12h2" />
  <path d="M2 17h2" />
  <path d="M2 7h2" />
  <path d="M20 12h2" />
  <path d="M20 17h2" />
  <path d="M20 7h2" />
  <path d="M7 20v2" />
  <path d="M7 2v2" />
  <rect x="4" y="4" width="16" height="16" rx="2" />
  <rect x="8" y="8" width="8" height="8" rx="1" /></g>
<text x="457.0" y="772.0" font-family="Arial, Helvetica, Microsoft YaHei, Noto Sans CJK SC, sans-serif" font-size="19" font-weight="700" fill="#0B2E63">3. Control board clock</text>
<text x="457.0" y="799.0" font-family="Arial, Helvetica, Microsoft YaHei, Noto Sans CJK SC, sans-serif" font-size="19" font-weight="700" fill="#0B2E63">and reset signals are</text>
<text x="457.0" y="826.0" font-family="Arial, Helvetica, Microsoft YaHei, Noto Sans CJK SC, sans-serif" font-size="19" font-weight="700" fill="#0B2E63">present and sequenced</text>
<text x="457.0" y="853.0" font-family="Arial, Helvetica, Microsoft YaHei, Noto Sans CJK SC, sans-serif" font-size="19" font-weight="700" fill="#0B2E63">correctly?</text>
</g>
<line x1="683.0" y1="880.0" x2="683.0" y2="894.0" stroke="#0B3A75" stroke-width="2"/>
<path class="exclusion-fail-connector exclusion-fail-drop-connector" d="M 719.0 913.0 L 973.0 913.0 L 973.0 936.0" fill="none" stroke="#0B3A75" stroke-width="2" marker-end="url(#arrowNavy)"/>
<g class="exclusion-fail-chip"><rect x="647.0" y="894.0" width="72.0" height="38" rx="7" fill="#FDECEC" stroke="#C62828" stroke-width="1.5"/><text x="683.0" y="919.0" text-anchor="middle" font-family="Arial, Helvetica, Microsoft YaHei, Noto Sans CJK SC, sans-serif" font-size="16" font-weight="700" fill="#C62828">No</text></g>
<g class="exclusion-fail-conclusion">
<rect x="893.0" y="924.0" width="420" height="96.0" rx="13" fill="#FFFFFF" stroke="#9AA9BD" stroke-width="1.5" filter="url(#subtleShadow)"/>
<g><circle cx="931.0" cy="967" r="17" fill="#C62828"/><line x1="923.0" y1="959" x2="939.0" y2="975" stroke="#FFFFFF" stroke-width="4" stroke-linecap="round"/><line x1="939.0" y1="959" x2="923.0" y2="975" stroke="#FFFFFF" stroke-width="4" stroke-linecap="round"/></g>
<text x="969.0" y="966.0" font-family="Arial, Helvetica, Microsoft YaHei, Noto Sans CJK SC, sans-serif" font-size="17" font-weight="700" fill="#0B2E63">Root Cause:</text>
<text x="969.0" y="990.0" font-family="Arial, Helvetica, Microsoft YaHei, Noto Sans CJK SC, sans-serif" font-size="16" font-weight="700" fill="#0B2E63">Controller Reset Or Clock Fault</text>
</g>
<path class="exclusion-pass-connector" d="M 449.0 880.0 L 449.0 913.0 L 284.0 913.0 L 284.0 944.0" fill="none" stroke="#0B3A75" stroke-width="2" marker-end="url(#arrowNavy)"/>
<g class="exclusion-pass-chip"><rect x="413.0" y="894.0" width="72.0" height="38" rx="7" fill="#EAF6EA" stroke="#2E7D32" stroke-width="1.5"/><text x="449.0" y="919.0" text-anchor="middle" font-family="Arial, Helvetica, Microsoft YaHei, Noto Sans CJK SC, sans-serif" font-size="16" font-weight="700" fill="#2E7D32">Yes</text></g>
<g class="exclusion-checkpoint" data-check-id="4">
<rect x="200.0" y="944.0" width="360" height="138.0" rx="11" fill="#EAF3FF" stroke="#0B3A75" stroke-width="2"/>
<g class="lucide-icon" transform="translate(227.0 996.0) scale(1.42)" fill="none" stroke="#0B3A75" stroke-width="2" stroke-linecap="round" stroke-linejoin="round"><path d="M5 21v-6" />
  <path d="M12 21V9" />
  <path d="M19 21V3" /></g>
<text x="292.0" y="974.0" font-family="Arial, Helvetica, Microsoft YaHei, Noto Sans CJK SC, sans-serif" font-size="19" font-weight="700" fill="#0B2E63">4. Startup command</text>
<text x="292.0" y="1001.0" font-family="Arial, Helvetica, Microsoft YaHei, Noto Sans CJK SC, sans-serif" font-size="19" font-weight="700" fill="#0B2E63">signal is detected by</text>
<text x="292.0" y="1028.0" font-family="Arial, Helvetica, Microsoft YaHei, Noto Sans CJK SC, sans-serif" font-size="19" font-weight="700" fill="#0B2E63">the controller input</text>
<text x="292.0" y="1055.0" font-family="Arial, Helvetica, Microsoft YaHei, Noto Sans CJK SC, sans-serif" font-size="19" font-weight="700" fill="#0B2E63">pin?</text>
</g>
<line x1="518.0" y1="1082.0" x2="518.0" y2="1096.0" stroke="#0B3A75" stroke-width="2"/>
<path class="exclusion-fail-connector exclusion-fail-drop-connector" d="M 554.0 1115.0 L 808.0 1115.0 L 808.0 1138.0" fill="none" stroke="#0B3A75" stroke-width="2" marker-end="url(#arrowNavy)"/>
<g class="exclusion-fail-chip"><rect x="482.0" y="1096.0" width="72.0" height="38" rx="7" fill="#FDECEC" stroke="#C62828" stroke-width="1.5"/><text x="518.0" y="1121.0" text-anchor="middle" font-family="Arial, Helvetica, Microsoft YaHei, Noto Sans CJK SC, sans-serif" font-size="16" font-weight="700" fill="#C62828">No</text></g>
<g class="exclusion-fail-conclusion">
<rect x="728.0" y="1126.0" width="420" height="96.0" rx="13" fill="#FFFFFF" stroke="#9AA9BD" stroke-width="1.5" filter="url(#subtleShadow)"/>
<g><circle cx="766.0" cy="1169" r="17" fill="#C62828"/><line x1="758.0" y1="1161" x2="774.0" y2="1177" stroke="#FFFFFF" stroke-width="4" stroke-linecap="round"/><line x1="774.0" y1="1161" x2="758.0" y2="1177" stroke="#FFFFFF" stroke-width="4" stroke-linecap="round"/></g>
<text x="804.0" y="1168.0" font-family="Arial, Helvetica, Microsoft YaHei, Noto Sans CJK SC, sans-serif" font-size="17" font-weight="700" fill="#0B2E63">Root Cause:</text>
<text x="804.0" y="1192.0" font-family="Arial, Helvetica, Microsoft YaHei, Noto Sans CJK SC, sans-serif" font-size="16" font-weight="700" fill="#0B2E63">Start Signal Path Issue</text>
</g>
<path class="exclusion-pass-connector" d="M 284.0 1082.0 L 284.0 1115.0 L 214.0 1115.0 L 214.0 1146.0" fill="none" stroke="#0B3A75" stroke-width="2" marker-end="url(#arrowNavy)"/>
<g class="exclusion-pass-chip"><rect x="248.0" y="1096.0" width="72.0" height="38" rx="7" fill="#EAF6EA" stroke="#2E7D32" stroke-width="1.5"/><text x="284.0" y="1121.0" text-anchor="middle" font-family="Arial, Helvetica, Microsoft YaHei, Noto Sans CJK SC, sans-serif" font-size="16" font-weight="700" fill="#2E7D32">Yes</text></g>
<g class="exclusion-checkpoint" data-check-id="5">
<rect x="130.0" y="1146.0" width="360" height="138.0" rx="11" fill="#EAF3FF" stroke="#0B3A75" stroke-width="2"/>
<g class="lucide-icon" transform="translate(157.0 1198.0) scale(1.42)" fill="none" stroke="#0B3A75" stroke-width="2" stroke-linecap="round" stroke-linejoin="round"><path d="M14 4v10.54a4 4 0 1 1-4 0V4a2 2 0 0 1 4 0Z" /></g>
<text x="222.0" y="1176.0" font-family="Arial, Helvetica, Microsoft YaHei, Noto Sans CJK SC, sans-serif" font-size="19" font-weight="700" fill="#0B2E63">5. Chamber temperature</text>
<text x="222.0" y="1203.0" font-family="Arial, Helvetica, Microsoft YaHei, Noto Sans CJK SC, sans-serif" font-size="19" font-weight="700" fill="#0B2E63">profile and soak</text>
<text x="222.0" y="1230.0" font-family="Arial, Helvetica, Microsoft YaHei, Noto Sans CJK SC, sans-serif" font-size="19" font-weight="700" fill="#0B2E63">duration match the</text>
<text x="222.0" y="1257.0" font-family="Arial, Helvetica, Microsoft YaHei, Noto Sans CJK SC, sans-serif" font-size="19" font-weight="700" fill="#0B2E63">validation procedure?</text>
</g>
<line x1="448.0" y1="1284.0" x2="448.0" y2="1298.0" stroke="#0B3A75" stroke-width="2"/>
<path class="exclusion-fail-connector exclusion-fail-drop-connector" d="M 484.0 1317.0 L 738.0 1317.0 L 738.0 1340.0" fill="none" stroke="#0B3A75" stroke-width="2" marker-end="url(#arrowNavy)"/>
<g class="exclusion-fail-chip"><rect x="412.0" y="1298.0" width="72.0" height="38" rx="7" fill="#FDECEC" stroke="#C62828" stroke-width="1.5"/><text x="448.0" y="1323.0" text-anchor="middle" font-family="Arial, Helvetica, Microsoft YaHei, Noto Sans CJK SC, sans-serif" font-size="16" font-weight="700" fill="#C62828">No</text></g>
<g class="exclusion-fail-conclusion">
<rect x="658.0" y="1328.0" width="420" height="176.0" rx="13" fill="#FFFFFF" stroke="#9AA9BD" stroke-width="1.5" filter="url(#subtleShadow)"/>
<g><circle cx="696.0" cy="1371" r="17" fill="#C62828"/><line x1="688.0" y1="1363" x2="704.0" y2="1379" stroke="#FFFFFF" stroke-width="4" stroke-linecap="round"/><line x1="704.0" y1="1363" x2="688.0" y2="1379" stroke="#FFFFFF" stroke-width="4" stroke-linecap="round"/></g>
<text x="734.0" y="1370.0" font-family="Arial, Helvetica, Microsoft YaHei, Noto Sans CJK SC, sans-serif" font-size="17" font-weight="700" fill="#0B2E63">Root Cause:</text>
<text x="734.0" y="1394.0" font-family="Arial, Helvetica, Microsoft YaHei, Noto Sans CJK SC, sans-serif" font-size="16" font-weight="700" fill="#0B2E63">Thermal Test Method Deviation</text>
<text x="734.0" y="1420.0" font-family="Arial, Helvetica, Microsoft YaHei, Noto Sans CJK SC, sans-serif" font-size="14" fill="#5B677A">Review chamber profile, soak timing,</text>
<text x="734.0" y="1440.0" font-family="Arial, Helvetica, Microsoft YaHei, Noto Sans CJK SC, sans-serif" font-size="14" fill="#5B677A">thermocouple placement, fixture thermal mass,</text>
<text x="734.0" y="1460.0" font-family="Arial, Helvetica, Microsoft YaHei, Noto Sans CJK SC, sans-serif" font-size="14" fill="#5B677A">and release procedure evidence before</text>
<text x="734.0" y="1480.0" font-family="Arial, Helvetica, Microsoft YaHei, Noto Sans CJK SC, sans-serif" font-size="14" fill="#5B677A">continuing the diagnostic path.</text>
</g>
<path class="exclusion-pass-connector" d="M 214.0 1284.0 L 214.0 1317.0 L 144.0 1317.0 L 144.0 1348.0" fill="none" stroke="#0B3A75" stroke-width="2" marker-end="url(#arrowNavy)"/>
<g class="exclusion-pass-chip"><rect x="178.0" y="1298.0" width="72.0" height="38" rx="7" fill="#EAF6EA" stroke="#2E7D32" stroke-width="1.5"/><text x="214.0" y="1323.0" text-anchor="middle" font-family="Arial, Helvetica, Microsoft YaHei, Noto Sans CJK SC, sans-serif" font-size="16" font-weight="700" fill="#2E7D32">Yes</text></g>
<g class="exclusion-checkpoint" data-check-id="6">
<rect x="60.0" y="1348.0" width="360" height="138.0" rx="11" fill="#EAF3FF" stroke="#0B3A75" stroke-width="2"/>
<g class="lucide-icon" transform="translate(87.0 1400.0) scale(1.42)" fill="none" stroke="#0B3A75" stroke-width="2" stroke-linecap="round" stroke-linejoin="round"><path d="M22 12h-2.48a2 2 0 0 0-1.93 1.46l-2.35 8.36a.25.25 0 0 1-.48 0L9.24 2.18a.25.25 0 0 0-.48 0l-2.35 8.36A2 2 0 0 1 4.49 12H2" /></g>
<text x="152.0" y="1378.0" font-family="Arial, Helvetica, Microsoft YaHei, Noto Sans CJK SC, sans-serif" font-size="19" font-weight="700" fill="#0B2E63">6. Operator setup record</text>
<text x="152.0" y="1405.0" font-family="Arial, Helvetica, Microsoft YaHei, Noto Sans CJK SC, sans-serif" font-size="19" font-weight="700" fill="#0B2E63">confirms the correct</text>
<text x="152.0" y="1432.0" font-family="Arial, Helvetica, Microsoft YaHei, Noto Sans CJK SC, sans-serif" font-size="19" font-weight="700" fill="#0B2E63">fixture and released</text>
<text x="152.0" y="1459.0" font-family="Arial, Helvetica, Microsoft YaHei, Noto Sans CJK SC, sans-serif" font-size="19" font-weight="700" fill="#0B2E63">test instruction?</text>
</g>
<line x1="378.0" y1="1486.0" x2="378.0" y2="1500.0" stroke="#0B3A75" stroke-width="2"/>
<path class="exclusion-fail-connector exclusion-fail-drop-connector" d="M 414.0 1519.0 L 624.0 1519.0 L 624.0 1542.0" fill="none" stroke="#0B3A75" stroke-width="2" marker-end="url(#arrowNavy)"/>
<g class="exclusion-fail-chip"><rect x="342.0" y="1500.0" width="72.0" height="38" rx="7" fill="#FDECEC" stroke="#C62828" stroke-width="1.5"/><text x="378.0" y="1525.0" text-anchor="middle" font-family="Arial, Helvetica, Microsoft YaHei, Noto Sans CJK SC, sans-serif" font-size="16" font-weight="700" fill="#C62828">No</text></g>
<g class="exclusion-fail-conclusion">
<rect x="588.0" y="1530.0" width="420" height="136.0" rx="13" fill="#FFFFFF" stroke="#9AA9BD" stroke-width="1.5" filter="url(#subtleShadow)"/>
<g><circle cx="626.0" cy="1573" r="17" fill="#C62828"/><line x1="618.0" y1="1565" x2="634.0" y2="1581" stroke="#FFFFFF" stroke-width="4" stroke-linecap="round"/><line x1="634.0" y1="1565" x2="618.0" y2="1581" stroke="#FFFFFF" stroke-width="4" stroke-linecap="round"/></g>
<text x="664.0" y="1572.0" font-family="Arial, Helvetica, Microsoft YaHei, Noto Sans CJK SC, sans-serif" font-size="17" font-weight="700" fill="#0B2E63">Root Cause:</text>
<text x="664.0" y="1596.0" font-family="Arial, Helvetica, Microsoft YaHei, Noto Sans CJK SC, sans-serif" font-size="16" font-weight="700" fill="#0B2E63">Setup Or Method Error</text>
<text x="664.0" y="1622.0" font-family="Arial, Helvetica, Microsoft YaHei, Noto Sans CJK SC, sans-serif" font-size="14" fill="#5B677A">Review fixture revision, work instruction, and</text>
<text x="664.0" y="1642.0" font-family="Arial, Helvetica, Microsoft YaHei, Noto Sans CJK SC, sans-serif" font-size="14" fill="#5B677A">setup photo evidence.</text>
</g>
<path class="exclusion-final-pass-connector" d="M 138.0 1486.0 L 138.0 1519.0 L 138.0 1590.0" fill="none" stroke="#0B3A75" stroke-width="2" marker-end="url(#arrowNavy)"/>
<g class="exclusion-pass-chip"><rect x="102.0" y="1500.0" width="72.0" height="38" rx="7" fill="#EAF6EA" stroke="#2E7D32" stroke-width="1.5"/><text x="138.0" y="1525.0" text-anchor="middle" font-family="Arial, Helvetica, Microsoft YaHei, Noto Sans CJK SC, sans-serif" font-size="16" font-weight="700" fill="#2E7D32">Yes</text></g>
<g class="exclusion-final-pass">
<rect x="60.0" y="1590.0" width="500" height="138.0" rx="13" fill="#EAF6EA" stroke="#2E7D32" stroke-width="1.5" filter="url(#subtleShadow)"/>
<g><circle cx="98.0" cy="1633" r="17" fill="#2E7D32"/><path d="M 89.0 1633 L 96.0 1641 L 110.0 1624" fill="none" stroke="#FFFFFF" stroke-width="4" stroke-linecap="round" stroke-linejoin="round"/></g>
<text x="136.0" y="1632.0" font-family="Arial, Helvetica, Microsoft YaHei, Noto Sans CJK SC, sans-serif" font-size="17" font-weight="700" fill="#0B2E63">No Issue Found</text>
<text x="136.0" y="1656.0" font-family="Arial, Helvetica, Microsoft YaHei, Noto Sans CJK SC, sans-serif" font-size="16" font-weight="700" fill="#0B2E63">No issue found in this path. Escalate to rare</text>
<text x="136.0" y="1680.0" font-family="Arial, Helvetica, Microsoft YaHei, Noto Sans CJK SC, sans-serif" font-size="16" font-weight="700" fill="#0B2E63">component-level causes or deeper waveform</text>
<text x="136.0" y="1704.0" font-family="Arial, Helvetica, Microsoft YaHei, Noto Sans CJK SC, sans-serif" font-size="16" font-weight="700" fill="#0B2E63">capture.</text>
</g>
<g id="exclusion-tree-legend">
<rect x="1530" y="38" width="340" height="462" rx="12" fill="#FFFFFF" stroke="#6E93BD" stroke-width="1.6" stroke-dasharray="7 6"/>
<text x="1554" y="83" font-family="Arial, Helvetica, Microsoft YaHei, Noto Sans CJK SC, sans-serif" font-size="23" font-weight="700" fill="#0B2E63">Legend</text>
<rect x="1556" y="110" width="64" height="32" rx="5" fill="#EAF3FF" stroke="#0B3A75"/>
<text x="1642" y="132" font-family="Arial, Helvetica, Microsoft YaHei, Noto Sans CJK SC, sans-serif" font-size="16" font-weight="700" fill="#0B2E63">Test Step / Check Point</text>
<rect x="1556" y="186" width="64" height="32" rx="5" fill="#EAF6EA" stroke="#2E7D32"/><text x="1588" y="208" text-anchor="middle" font-family="Arial, Helvetica, Microsoft YaHei, Noto Sans CJK SC, sans-serif" font-size="15" font-weight="700" fill="#2E7D32">Yes</text>
<text x="1642" y="208" font-family="Arial, Helvetica, Microsoft YaHei, Noto Sans CJK SC, sans-serif" font-size="16" font-weight="700" fill="#0B2E63">Yes (Pass)</text>
<rect x="1556" y="262" width="64" height="32" rx="5" fill="#FDECEC" stroke="#C62828"/><text x="1588" y="284" text-anchor="middle" font-family="Arial, Helvetica, Microsoft YaHei, Noto Sans CJK SC, sans-serif" font-size="15" font-weight="700" fill="#C62828">No</text>
<text x="1642" y="284" font-family="Arial, Helvetica, Microsoft YaHei, Noto Sans CJK SC, sans-serif" font-size="16" font-weight="700" fill="#0B2E63">No (Fail)</text>
<rect x="1556" y="336" width="64" height="36" rx="6" fill="#FFFFFF" stroke="#9AA9BD"/><g><circle cx="1588" cy="354" r="17" fill="#C62828"/><line x1="1580" y1="346" x2="1596" y2="362" stroke="#FFFFFF" stroke-width="4" stroke-linecap="round"/><line x1="1596" y1="346" x2="1580" y2="362" stroke="#FFFFFF" stroke-width="4" stroke-linecap="round"/></g>
<text x="1642" y="360" font-family="Arial, Helvetica, Microsoft YaHei, Noto Sans CJK SC, sans-serif" font-size="16" font-weight="700" fill="#0B2E63">Excluded Cause</text>
<rect x="1556" y="412" width="64" height="36" rx="6" fill="#EAF6EA" stroke="#CBD5E1"/><g><circle cx="1588" cy="430" r="17" fill="#2E7D32"/><path d="M 1579 430 L 1586 438 L 1600 421" fill="none" stroke="#FFFFFF" stroke-width="4" stroke-linecap="round" stroke-linejoin="round"/></g>
<text x="1642" y="436" font-family="Arial, Helvetica, Microsoft YaHei, Noto Sans CJK SC, sans-serif" font-size="16" font-weight="700" fill="#0B2E63">No Issue Found</text>
</g>
<g id="exclusion-how-to-use">
<rect x="1270" y="1056" width="620" height="286" rx="12" fill="#FFFFFF" stroke="#6E93BD" stroke-width="1.6" stroke-dasharray="7 6"/>
<text x="1294" y="1098" font-family="Arial, Helvetica, Microsoft YaHei, Noto Sans CJK SC, sans-serif" font-size="20" font-weight="700" fill="#0B2E63">How to Use</text>
<rect x="1294" y="1114" width="28" height="28" rx="4" fill="#0B2E63"/>
<text x="1308" y="1134" text-anchor="middle" font-family="Arial, Helvetica, Microsoft YaHei, Noto Sans CJK SC, sans-serif" font-size="15" font-weight="700" fill="#FFFFFF">1</text>
<rect x="1332" y="1108" width="532" height="46" fill="#FFFFFF" stroke="#CBD5E1" stroke-width="1"/>
<text x="1352" y="1136" font-family="Arial, Helvetica, Microsoft YaHei, Noto Sans CJK SC, sans-serif" font-size="16" fill="#5B677A">Start from the top event and run each check in order.</text>
<rect x="1294" y="1162" width="28" height="28" rx="4" fill="#0B2E63"/>
<text x="1308" y="1182" text-anchor="middle" font-family="Arial, Helvetica, Microsoft YaHei, Noto Sans CJK SC, sans-serif" font-size="15" font-weight="700" fill="#FFFFFF">2</text>
<rect x="1332" y="1156" width="532" height="46" fill="#FFFFFF" stroke="#CBD5E1" stroke-width="1"/>
<text x="1352" y="1184" font-family="Arial, Helvetica, Microsoft YaHei, Noto Sans CJK SC, sans-serif" font-size="16" fill="#5B677A">Follow the Yes/No result downward along the arrows.</text>
<rect x="1294" y="1210" width="28" height="28" rx="4" fill="#0B2E63"/>
<text x="1308" y="1230" text-anchor="middle" font-family="Arial, Helvetica, Microsoft YaHei, Noto Sans CJK SC, sans-serif" font-size="15" font-weight="700" fill="#FFFFFF">3</text>
<rect x="1332" y="1204" width="532" height="46" fill="#FFFFFF" stroke="#CBD5E1" stroke-width="1"/>
<text x="1352" y="1232" font-family="Arial, Helvetica, Microsoft YaHei, Noto Sans CJK SC, sans-serif" font-size="16" fill="#5B677A">When a check fails, treat the side card as the priority cause to verify.</text>
<rect x="1294" y="1258" width="28" height="28" rx="4" fill="#0B2E63"/>
<text x="1308" y="1278" text-anchor="middle" font-family="Arial, Helvetica, Microsoft YaHei, Noto Sans CJK SC, sans-serif" font-size="15" font-weight="700" fill="#FFFFFF">4</text>
<rect x="1332" y="1252" width="532" height="46" fill="#FFFFFF" stroke="#CBD5E1" stroke-width="1"/>
<text x="1352" y="1280" font-family="Arial, Helvetica, Microsoft YaHei, Noto Sans CJK SC, sans-serif" font-size="16" fill="#5B677A">If all checks pass, investigate other paths or deeper causes.</text>
</g>
</svg>